<svg id="Layer_1" data-name="Layer 1" xmlns="http://www.w3.org/2000/svg" viewBox="0 0 567 439"><defs><style>.cls-1{fill:#035037;}.cls-2{fill:#fff;}.cls-3{fill:#571d18;}.cls-4{fill:#85be4b;}.cls-5{fill:#01815a;}.cls-6{opacity:0.4;}.cls-7{fill:#8b4e27;}.cls-8{fill:#b7d053;}.cls-9{fill:#03623f;}.cls-10{fill:#f49e78;}.cls-11{fill:#03a86f;}.cls-12{fill:#e0986d;}.cls-13{fill:#ef7c55;}.cls-14{fill:#5d315e;}.cls-15{fill:#84bb26;}.cls-16{fill:#c8dedb;}.cls-17{fill:#fcc557;}.cls-18{fill:#f4f3f4;}.cls-19{fill:#6ba42f;}.cls-20{fill:#e5ecf8;}.cls-21{opacity:0.3;}.cls-22{fill:#ffdf76;}.cls-23{fill:#dbece9;}.cls-24{opacity:0.5;}</style></defs><rect class="cls-1" width="567" height="439"/><path class="cls-2" d="M540,270.77a110.63,110.63,0,0,0,21.74-65.95c0-61.85-50.67-112-113.18-112a113.83,113.83,0,0,0-32,4.58C400,45.76,351.24,8.32,293.6,8.32A129.11,129.11,0,0,0,186.71,64.58a58.88,58.88,0,0,0-30.09-8.21c-32.42,0-58.71,26-58.71,58.09,0,1.55.08,3.07.2,4.59a100.58,100.58,0,0,0-70.45,46.5A110.63,110.63,0,0,0,5.92,231.5c0,61.85,50.67,112,113.18,112a114.19,114.19,0,0,0,32-4.57C167.6,390.56,216.4,428,274,428a129.11,129.11,0,0,0,106.89-56.26A58.88,58.88,0,0,0,411,380c32.42,0,58.71-26,58.71-58.09,0-1.55-.08-3.07-.2-4.59A100.58,100.58,0,0,0,540,270.77Z" transform="translate(1 0)"/><polygon class="cls-3" points="335.58 298.78 338.71 298.78 338.71 264.99 336.65 267.23 335.58 298.78"/><path class="cls-3" d="M326.74,300.63s14,.25,18.72.28c.52,0,.89-.7.89-1.21h0a1.43,1.43,0,0,0-1.27-1.11c-4.58,0-18.34.19-18.34.19a.92.92,0,0,0-.93.92h0A.93.93,0,0,0,326.74,300.63Z" transform="translate(1 0)"/><path class="cls-3" d="M345.68,302.29a2.05,2.05,0,0,0-2.11-1.66,2,2,0,0,0-2.11,1.71,2.39,2.39,0,0,0,2.35,2.18A1.91,1.91,0,0,0,345.68,302.29Z" transform="translate(1 0)"/><path class="cls-3" d="M330.7,302.29a2.05,2.05,0,0,0-2.11-1.66,2,2,0,0,0-2.11,1.71,2.39,2.39,0,0,0,2.35,2.18A1.91,1.91,0,0,0,330.7,302.29Z" transform="translate(1 0)"/><path class="cls-3" d="M342.39,267.07s.51,2.21-4.68,2.92a7.44,7.44,0,0,1-7.42-2.92Z" transform="translate(1 0)"/><path class="cls-4" d="M329.87,263.64c-.05-6.2.92-31.28,9.85-32.91,3.5-.65,15.9-2.23,17.57,3,2.84,9-4.87,31.23-4.87,31.23a3.9,3.9,0,0,1-3.23,2.63c-2.54.26-33.55,1.15-33.86,0C314.13,263.07,325.45,264.91,329.87,263.64Z" transform="translate(1 0)"/><path class="cls-5" d="M319.77,155.07a.2.2,0,0,1-.11,0l-19.85-10.3a.25.25,0,0,1-.13-.14.25.25,0,0,1,0-.19,26.36,26.36,0,0,0,2.45-9,28.08,28.08,0,0,0-5.94-20c-9.2-11.22-10.87-23.71-4.7-35.16A41.74,41.74,0,0,1,302.6,67.41,52.66,52.66,0,0,1,318.49,59a50.75,50.75,0,0,1,18.22-2.57,43.1,43.1,0,0,1,18.07,4.75c12.76,6.62,22.41,18,25.84,30.5a35.17,35.17,0,0,1,1.11,13.47,30.34,30.34,0,0,1-4.49,12.72c-8.6,13.64-18.44,20.75-30.1,21.72-2,.2-20.12,2.33-27.15,15.37A.25.25,0,0,1,319.77,155.07Zm-19.51-10.65,19.41,10.07c3-5.46,8.22-9.66,15.48-12.48a47.9,47.9,0,0,1,12-2.93c11.48-1,21.2-8,29.71-21.49a29.86,29.86,0,0,0,4.42-12.52,34.59,34.59,0,0,0-1.1-13.28c-3.38-12.35-12.95-23.63-25.58-30.19a42.78,42.78,0,0,0-17.87-4.69,50.14,50.14,0,0,0-18,2.54,52.35,52.35,0,0,0-15.74,8.35,41.17,41.17,0,0,0-11,12.7,28.08,28.08,0,0,0-3.29,17.93,35,35,0,0,0,7.94,16.68,28.52,28.52,0,0,1,6,20.37A27.79,27.79,0,0,1,300.26,144.42Z" transform="translate(1 0)"/><g class="cls-6"><path class="cls-5" d="M323.27,74.84a4,4,0,0,1-3.2-1.44c-1.51-1.81-1.31-4.68.48-7a12.73,12.73,0,0,1,8.57-4.31c2.77-.31,5.28.19,6.72,1.34,3.85,3.1,5.58,5.42,5.27,7.1q-.25,1.34-2.19,2a.29.29,0,0,1-.13,0c-.07,0-6.67-1.37-12.39,1.47A7.09,7.09,0,0,1,323.27,74.84Zm7.47-12.31a14,14,0,0,0-1.56.09,12.24,12.24,0,0,0-8.24,4.11c-1.64,2.11-1.84,4.72-.48,6.36,1.23,1.47,3.36,1.65,5.72.48,5.55-2.75,11.91-1.66,12.64-1.52,1.07-.37,1.67-.9,1.79-1.58.34-1.82-2.58-4.6-5.09-6.62A7.74,7.74,0,0,0,330.74,62.53Z" transform="translate(1 0)"/></g><path class="cls-4" d="M349,58.19c-22.75-11.81-52.53-.32-62.93,19-6.54,12.14-3.86,24.47,4.68,34.9a28,28,0,0,1,3.51,29.25l19.85,10.3c7.06-13.12,25.07-15.28,27.35-15.5,10.8-.91,20.8-7.17,29.9-21.61C383.05,96,371.73,70,349,58.19Z" transform="translate(1 0)"/><path class="cls-7" d="M317.43,147s5.77,4.16.54,10.28c0,0,1.91,7-4.37,8.67,0,0,.95,6.74-5.06,9.69s-30.45-12.48-31.07-16.12,2-6.12,4.56-5.72c0,0-1.78-3.93.6-6.43s4.27-2.26,4.27-2.26-1.61-2.49.26-6.48S296.17,131.9,317.43,147Z" transform="translate(1 0)"/><g class="cls-6"><path class="cls-2" d="M333.16,69.11s-6.69-1.42-12.55,1.49-9-2.82-5.55-7.22,11.71-5.51,14.94-2.92S338,67.52,333.16,69.11Z" transform="translate(1 0)"/></g><path class="cls-3" d="M313.44,166.36a.53.53,0,0,1-.2-.13A33.13,33.13,0,0,0,308,162a36.28,36.28,0,0,0-14.07-5.73.47.47,0,0,1-.4-.56.49.49,0,0,1,.56-.4,37.32,37.32,0,0,1,14.49,5.91,32.77,32.77,0,0,1,5.37,4.4.48.48,0,0,1,0,.69A.49.49,0,0,1,313.44,166.36Z" transform="translate(1 0)"/><path class="cls-3" d="M317.81,157.69l-.16-.1a65.34,65.34,0,0,0-6.74-5c-3.62-2.33-9-5.23-14.07-5.85a.49.49,0,0,1,.12-1c5.26.66,10.79,3.63,14.5,6a63.49,63.49,0,0,1,6.84,5.05.48.48,0,0,1,0,.68A.51.51,0,0,1,317.81,157.69Z" transform="translate(1 0)"/><g class="cls-6"><path class="cls-2" d="M312,143l-1.82-.54c0-.07,2.26-7.38,5.08-14.84,1.09-2.88,2.06-5.26,2.94-7.24a22.78,22.78,0,0,1-3.68-1.65,196.73,196.73,0,0,1-10.8,20l-1.62-1a200.39,200.39,0,0,0,10.79-20,14.73,14.73,0,0,1-4.4-4.72,8.52,8.52,0,0,1,.86-10.08c1.88-2.2,4.47-3.22,6.46-2.52,1,.34,2.66,1.44,2.73,4.84.05,2.94-1.33,7.24-3.27,11.78a21.49,21.49,0,0,0,3.71,1.66c2.85-6,4.53-7.42,5.63-7.86a7.52,7.52,0,0,1,8.64,2.52,4.78,4.78,0,0,1,0,6.12c-1.44,1.76-4.82,2.6-9,2.24a24.46,24.46,0,0,1-4.2-.74c-.87,2-1.87,4.37-3,7.34C314.28,135.69,312.06,142.94,312,143Zm8.83-23.79a22.18,22.18,0,0,0,3.56.59c3.43.29,6.41-.33,7.41-1.55a3,3,0,0,0-.08-3.82,5.65,5.65,0,0,0-6.4-1.88C324.78,112.79,323.39,113.94,320.87,119.22Zm-6.34-17.17a5.35,5.35,0,0,0-3.68,2.07,6.74,6.74,0,0,0-.66,7.94,12.6,12.6,0,0,0,3.52,3.89c1.77-4.19,3-8.08,3-10.68,0-1-.23-2.68-1.45-3.11A2.26,2.26,0,0,0,314.53,102.05Z" transform="translate(1 0)"/></g><path class="cls-8" d="M228.93,170.63l5.75,1.56a4.14,4.14,0,0,0,5.07-2.87l1.92-6.92a4.08,4.08,0,0,0-2.9-5l-4.07-1.1a4.11,4.11,0,0,1-3-3.84c0-.34,0-.68,0-1a4.06,4.06,0,0,1,2.43-3.93l3.48-1.56a4.06,4.06,0,0,0,2.06-5.41l-3-6.54a4.15,4.15,0,0,0-5.47-2l-3.49,1.56a4.12,4.12,0,0,1-4.58-.78c-.24-.25-.49-.48-.75-.71a4.05,4.05,0,0,1-.91-4.79l1.85-3.76a4.07,4.07,0,0,0-1.91-5.46l-6.52-3.15a4.17,4.17,0,0,0-5.53,1.89L206.67,122a4.16,4.16,0,0,1-3.79,2.29,29.38,29.38,0,0,0-4.08.23,4.17,4.17,0,0,1-4.33-2.36L192.53,118a4.14,4.14,0,0,0-5.46-2l-6.61,3a4.07,4.07,0,0,0-2.06,5.41L181,130a4,4,0,0,1-.61,4.35c-.25.29-.5.59-.74.89a4.15,4.15,0,0,1-4.3,1.38l-6.5-1.76a4.12,4.12,0,0,0-5.07,2.86l-1.92,6.93a4.08,4.08,0,0,0,2.9,5l5.58,1.51a4.09,4.09,0,0,1,3,3.71V155a4.07,4.07,0,0,1-2.42,4L166,161.12a4.07,4.07,0,0,0-2.06,5.41l3,6.55a4.15,4.15,0,0,0,5.47,2l4.94-2.22a4.14,4.14,0,0,1,4.6.81l.05,0a4.09,4.09,0,0,1,.82,4.71l-2.54,5.14a4.08,4.08,0,0,0,1.91,5.47l6.53,3.14a4.15,4.15,0,0,0,5.52-1.89l3-6a4.12,4.12,0,0,1,3.89-2.3l1.15,0a4.12,4.12,0,0,1,3.71,2.41l2.61,5.7a4.14,4.14,0,0,0,5.46,2l6.61-3a4.07,4.07,0,0,0,2.06-5.41l-1.94-4.23a4.09,4.09,0,0,1,1.06-4.78,28.79,28.79,0,0,0,2.86-2.88A4.17,4.17,0,0,1,228.93,170.63ZM209.1,168.2c-7.67,3.44-19.63-1.76-23.1-9.36s1.74-17.1,9.42-20.53,17.16,2.47,20.64,10.06S216.78,164.76,209.1,168.2Z" transform="translate(1 0)"/><path class="cls-3" d="M189.88,197.12a4.24,4.24,0,0,1-1.85-.43l-6.53-3.14a4.2,4.2,0,0,1-2.16-2.41,4.14,4.14,0,0,1,.2-3.22l2.53-5.14a4,4,0,0,0-.8-4.57l0,0a4.07,4.07,0,0,0-4.47-.79l-4.94,2.22a4.27,4.27,0,0,1-5.63-2.09l-3-6.54a4.16,4.16,0,0,1-.11-3.23,4.21,4.21,0,0,1,2.23-2.35l4.95-2.21a4,4,0,0,0,2.34-3.84v-.06a4,4,0,0,0-2.94-3.6l-5.58-1.51a4.24,4.24,0,0,1-2.58-2,4.17,4.17,0,0,1-.41-3.2l1.92-6.93a4.21,4.21,0,0,1,2-2.55,4.27,4.27,0,0,1,3.23-.4l6.49,1.76a4,4,0,0,0,4.18-1.34c.24-.3.49-.59.74-.89a3.92,3.92,0,0,0,.59-4.22l-2.61-5.69a4.19,4.19,0,0,1,2.12-5.57l6.61-3a4.26,4.26,0,0,1,3.25-.1,4.19,4.19,0,0,1,2.38,2.2l1.94,4.23a4,4,0,0,0,4.2,2.29,29.44,29.44,0,0,1,4.09-.23,4.05,4.05,0,0,0,3.68-2.22l2.62-5.31a4.26,4.26,0,0,1,5.68-1.94l6.53,3.14a4.2,4.2,0,0,1,2.16,2.41,4.14,4.14,0,0,1-.2,3.22l-1.85,3.75a3.91,3.91,0,0,0,.89,4.65l.75.71a4,4,0,0,0,4.44.77l3.49-1.57a4.29,4.29,0,0,1,5.63,2.1l3,6.54a4.14,4.14,0,0,1,.11,3.22,4.25,4.25,0,0,1-2.23,2.35L233.43,152a3.93,3.93,0,0,0-2.35,3.81c0,.34,0,.69,0,1a4,4,0,0,0,2.94,3.72l4.08,1.1a4.25,4.25,0,0,1,2.57,2,4.17,4.17,0,0,1,.41,3.2l-1.91,6.92a4.28,4.28,0,0,1-5.23,3l-5.76-1.56h0a4.08,4.08,0,0,0-4.12,1.28,30,30,0,0,1-2.86,2.89,3.93,3.93,0,0,0-1,4.63l1.94,4.23a4.16,4.16,0,0,1,.1,3.23,4.23,4.23,0,0,1-2.22,2.35l-6.61,3a4.33,4.33,0,0,1-3.26.11,4.19,4.19,0,0,1-2.37-2.21l-2.61-5.69a4,4,0,0,0-3.6-2.35l-1.16,0a4,4,0,0,0-3.77,2.22l-2.94,6A4.29,4.29,0,0,1,189.88,197.12Zm-11.47-20.33a4.3,4.3,0,0,1,3,1.2l0,0a4.18,4.18,0,0,1,.84,4.84L179.76,188a3.89,3.89,0,0,0-.19,3,4,4,0,0,0,2,2.27l6.53,3.14a4,4,0,0,0,5.35-1.83l2.95-6a4.24,4.24,0,0,1,4-2.37l1.16,0a4.27,4.27,0,0,1,3.82,2.48l2.6,5.7a4,4,0,0,0,2.24,2.08,4.08,4.08,0,0,0,3.07-.1l6.61-3a3.94,3.94,0,0,0,2-5.24L220,184a4.19,4.19,0,0,1,1.09-4.92,28.4,28.4,0,0,0,2.84-2.86,4.35,4.35,0,0,1,4.38-1.36h0l5.76,1.56a4,4,0,0,0,4.92-2.78l1.91-6.92a3.87,3.87,0,0,0-.39-3,4,4,0,0,0-2.42-1.86l-4.07-1.1a4.2,4.2,0,0,1-3.13-3.95c0-.34,0-.69,0-1a4.22,4.22,0,0,1,2.5-4.05l3.49-1.56a4,4,0,0,0,2.09-2.22,3.89,3.89,0,0,0-.1-3l-3-6.54a4,4,0,0,0-5.3-2L227,138a4.28,4.28,0,0,1-4.71-.81l-.75-.71a4.15,4.15,0,0,1-.94-4.94l1.85-3.75a3.89,3.89,0,0,0,.18-3,4,4,0,0,0-2-2.27l-6.53-3.14a4,4,0,0,0-5.35,1.82l-2.62,5.31a4.29,4.29,0,0,1-3.9,2.37,28.92,28.92,0,0,0-4.06.23,4.27,4.27,0,0,1-4.46-2.44l-1.94-4.23a4,4,0,0,0-5.3-2l-6.61,3a4,4,0,0,0-2,5.25l2.61,5.69a4.18,4.18,0,0,1-.63,4.48c-.25.29-.5.59-.74.89a4.27,4.27,0,0,1-4.43,1.42l-6.5-1.76a4,4,0,0,0-3,.38,3.9,3.9,0,0,0-1.88,2.4l-1.92,6.92a3.93,3.93,0,0,0,.39,3,4,4,0,0,0,2.42,1.86l5.58,1.5a4.25,4.25,0,0,1,3.13,3.83v0a4.21,4.21,0,0,1-2.49,4.08l-5,2.22a4,4,0,0,0-2.1,2.21,3.91,3.91,0,0,0,.11,3l3,6.54a4,4,0,0,0,5.31,2l4.94-2.22A4.3,4.3,0,0,1,178.41,176.79Z" transform="translate(1 0)"/><path class="cls-3" d="M263.75,136.26a1.91,1.91,0,0,1-1-.25,1.88,1.88,0,0,1-.88-1.15l-.64-2.42a1.7,1.7,0,0,0-1.54-1.26h0a1.73,1.73,0,0,0-1.67,1l-1,2.13a1.91,1.91,0,0,1-2.52.91l-2.88-1.33a1.87,1.87,0,0,1-.92-2.49l1-2.13a1.69,1.69,0,0,0-.32-1.9h0a1.71,1.71,0,0,0-2-.36L247.12,128a1.92,1.92,0,0,1-1.45.07,1.89,1.89,0,0,1-1.07-1l-1.36-2.83a1.85,1.85,0,0,1-.07-1.44,1.87,1.87,0,0,1,1-1.06l2.67-1.25a1.69,1.69,0,0,0,1-1.59c0-.16,0-.33,0-.5a1.71,1.71,0,0,0-1-1.54l-2.5-1.15a1.88,1.88,0,0,1-.92-2.5l1.34-2.84a1.86,1.86,0,0,1,1.07-1,1.92,1.92,0,0,1,1.45.06l1.86.86a1.73,1.73,0,0,0,2-.41,12.7,12.7,0,0,1,1.3-1.24A1.72,1.72,0,0,0,253,107l-.66-2.49a1.87,1.87,0,0,1,1.35-2.29l3.07-.8a2,2,0,0,1,1.44.2,1.81,1.81,0,0,1,.87,1.14l.47,1.77a1.71,1.71,0,0,0,1.6,1.27l.46,0a1.7,1.7,0,0,0,1.65-1l.71-1.5a1.92,1.92,0,0,1,2.52-.91l2.88,1.33a1.89,1.89,0,0,1,1,1.06,1.82,1.82,0,0,1-.07,1.43l-.7,1.51a1.66,1.66,0,0,0,.31,1.88c.1.11.21.22.31.34a1.74,1.74,0,0,0,2,.39l1.67-.78a1.85,1.85,0,0,1,1.44-.07,1.89,1.89,0,0,1,1.08,1l1.36,2.84a1.88,1.88,0,0,1-.9,2.5l-2.36,1.1a1.69,1.69,0,0,0-1,1.55,13.2,13.2,0,0,1-.12,1.78,1.69,1.69,0,0,0,1,1.79l1.86.86a1.84,1.84,0,0,1,1,1,1.89,1.89,0,0,1-.06,1.44l-1.34,2.84a1.89,1.89,0,0,1-1.07,1,1.87,1.87,0,0,1-1.45-.06L270.73,128a1.71,1.71,0,0,0-1.83.22l-.39.32a1.68,1.68,0,0,0-.6,1.77l.74,2.82a1.87,1.87,0,0,1-1.35,2.29l-3.07.79A2,2,0,0,1,263.75,136.26ZM259.58,131h.16a1.9,1.9,0,0,1,1.71,1.4l.64,2.42a1.67,1.67,0,0,0,.79,1,1.7,1.7,0,0,0,1.3.18l3.07-.8a1.69,1.69,0,0,0,1.23-2.07l-.75-2.82a1.85,1.85,0,0,1,.67-2l.39-.31a1.9,1.9,0,0,1,2-.26l2.5,1.16a1.75,1.75,0,0,0,1.31.06,1.69,1.69,0,0,0,1-.88l1.34-2.85A1.61,1.61,0,0,0,277,124a1.65,1.65,0,0,0-.89-1l-1.86-.86a1.87,1.87,0,0,1-1.07-2,12.65,12.65,0,0,0,.12-1.75,1.89,1.89,0,0,1,1.08-1.71l2.36-1.1a1.71,1.71,0,0,0,.82-2.27l-1.36-2.83a1.73,1.73,0,0,0-1-.88,1.7,1.7,0,0,0-1.31.07l-1.67.78a1.88,1.88,0,0,1-2.21-.44l-.31-.32a1.86,1.86,0,0,1-.35-2.09l.71-1.5a1.63,1.63,0,0,0,.06-1.3,1.68,1.68,0,0,0-.89-1l-2.87-1.32a1.72,1.72,0,0,0-2.28.82l-.71,1.5a1.91,1.91,0,0,1-1.84,1.08l-.45,0a1.87,1.87,0,0,1-1.76-1.4l-.47-1.76a1.69,1.69,0,0,0-.79-1,1.74,1.74,0,0,0-1.3-.18l-3.07.8a1.69,1.69,0,0,0-1.23,2.07l.66,2.5a1.88,1.88,0,0,1-.63,1.92,12.25,12.25,0,0,0-1.28,1.22,1.91,1.91,0,0,1-2.22.45l-1.86-.86a1.7,1.7,0,0,0-1.31,0,1.65,1.65,0,0,0-1,.88l-1.34,2.84a1.7,1.7,0,0,0,.83,2.26l2.5,1.15a1.88,1.88,0,0,1,1.11,1.7c0,.17,0,.33,0,.5a1.87,1.87,0,0,1-1.09,1.75L244.22,122a1.7,1.7,0,0,0-.82,2.26l1.36,2.84a1.7,1.7,0,0,0,1,.87,1.77,1.77,0,0,0,1.32-.06l2.28-1.07a1.91,1.91,0,0,1,2.18.39l0,.08.07-.06a1.86,1.86,0,0,1,.35,2.09l-1,2.13a1.69,1.69,0,0,0,.83,2.26l2.87,1.33a1.73,1.73,0,0,0,1.32.05,1.65,1.65,0,0,0,1-.87l1-2.13A1.91,1.91,0,0,1,259.58,131Z" transform="translate(1 0)"/><path class="cls-3" d="M259.66,125.69a7,7,0,0,1-2.93-.59,6.13,6.13,0,0,1-3.27-4.13,8.06,8.06,0,0,1,.45-5.46,5.87,5.87,0,0,1,4.26-3.1,9.09,9.09,0,0,1,5.6.59,6.93,6.93,0,0,1,3.58,3.65,6.12,6.12,0,0,1-.14,5h0C266.07,124.08,262.73,125.69,259.66,125.69Zm.39-13.3a8.71,8.71,0,0,0-1.84.2,5.68,5.68,0,0,0-4.14,3,7.86,7.86,0,0,0-.44,5.33,6,6,0,0,0,3.18,4c3.39,1.57,8.75-.19,10.24-3.36h0a6,6,0,0,0,.14-4.86,6.81,6.81,0,0,0-3.49-3.56A8.94,8.94,0,0,0,260.05,112.39Zm7.08,9.23Z" transform="translate(1 0)"/><path class="cls-3" d="M389,188.14a2.7,2.7,0,0,1-1.35-.36,2.65,2.65,0,0,1-1.24-1.62l-.92-3.48a2.51,2.51,0,0,0-2.25-1.85h0a2.53,2.53,0,0,0-2.45,1.43l-1.43,3.06a2.7,2.7,0,0,1-3.57,1.28l-4.14-1.9a2.64,2.64,0,0,1-1.38-1.5,2.59,2.59,0,0,1,.09-2l1.44-3.06a2.46,2.46,0,0,0-.47-2.76l0,0a2.52,2.52,0,0,0-2.88-.52l-3.28,1.54a2.72,2.72,0,0,1-2.06.1,2.69,2.69,0,0,1-1.52-1.37L359.62,171a2.64,2.64,0,0,1,1.28-3.54l3.82-1.79a2.49,2.49,0,0,0,1.44-2.32c0-.24,0-.48,0-.72a2.48,2.48,0,0,0-1.45-2.24l-3.6-1.66a2.65,2.65,0,0,1-1.3-3.53l1.92-4.09a2.69,2.69,0,0,1,1.52-1.37,2.65,2.65,0,0,1,2,.09l2.68,1.23a2.52,2.52,0,0,0,2.93-.61,19.35,19.35,0,0,1,1.86-1.76,2.5,2.5,0,0,0,.83-2.54l-.95-3.59a2.66,2.66,0,0,1,1.92-3.24l4.41-1.14a2.74,2.74,0,0,1,2,.27,2.65,2.65,0,0,1,1.24,1.62l.67,2.54a2.48,2.48,0,0,0,2.33,1.85l.65,0a2.5,2.5,0,0,0,2.42-1.43l1-2.16a2.71,2.71,0,0,1,3.57-1.28l4.13,1.9a2.69,2.69,0,0,1,1.39,1.5,2.65,2.65,0,0,1-.09,2l-1,2.16a2.47,2.47,0,0,0,.45,2.76c.16.15.31.31.46.47a2.49,2.49,0,0,0,2.92.58l2.4-1.12a2.7,2.7,0,0,1,2-.11,2.63,2.63,0,0,1,1.52,1.37l1.95,4.07a2.65,2.65,0,0,1-1.27,3.54l-3.39,1.59a2.51,2.51,0,0,0-1.43,2.26,17.87,17.87,0,0,1-.18,2.54,2.5,2.5,0,0,0,1.42,2.62l2.68,1.23a2.64,2.64,0,0,1,1.3,3.53l-1.93,4.09a2.7,2.7,0,0,1-3.57,1.28l-3.6-1.66a2.52,2.52,0,0,0-2.67.34c-.18.15-.37.31-.56.45a2.46,2.46,0,0,0-.88,2.58l1.07,4a2.65,2.65,0,0,1-1.91,3.24l-4.41,1.14A2.72,2.72,0,0,1,389,188.14Zm-6-7.49h.23a2.67,2.67,0,0,1,2.41,2l.92,3.48a2.45,2.45,0,0,0,1.16,1.51,2.48,2.48,0,0,0,1.9.26l4.41-1.14a2.48,2.48,0,0,0,1.79-3l-1.07-4.05a2.62,2.62,0,0,1,.94-2.76c.19-.14.38-.29.56-.45a2.72,2.72,0,0,1,2.86-.36l3.6,1.66a2.51,2.51,0,0,0,3.33-1.19l1.92-4.09a2.46,2.46,0,0,0-1.21-3.3l-2.67-1.23a2.64,2.64,0,0,1-1.52-2.8,19.24,19.24,0,0,0,.17-2.51,2.69,2.69,0,0,1,1.53-2.43l3.39-1.59a2.46,2.46,0,0,0,1.19-3.3L407,151.24a2.46,2.46,0,0,0-1.42-1.28,2.48,2.48,0,0,0-1.91.1l-2.4,1.12a2.7,2.7,0,0,1-3.14-.62c-.14-.16-.29-.32-.44-.47a2.62,2.62,0,0,1-.49-3l1-2.16a2.46,2.46,0,0,0,.08-1.9,2.48,2.48,0,0,0-1.3-1.4l-4.13-1.9a2.51,2.51,0,0,0-3.32,1.2l-1,2.15a2.67,2.67,0,0,1-2.6,1.53c-.22,0-.43,0-.65,0a2.68,2.68,0,0,1-2.5-2l-.67-2.54a2.5,2.5,0,0,0-3.05-1.77l-4.41,1.14a2.48,2.48,0,0,0-1.8,3l.95,3.59a2.67,2.67,0,0,1-.89,2.72,17.83,17.83,0,0,0-1.83,1.75,2.7,2.7,0,0,1-3.15.65L365.21,150a2.55,2.55,0,0,0-1.92-.09,2.49,2.49,0,0,0-1.41,1.29L360,155.26a2.48,2.48,0,0,0,1.21,3.3l3.6,1.66a2.65,2.65,0,0,1,1.56,2.4c0,.24,0,.48,0,.71a2.64,2.64,0,0,1-1.53,2.49L361,167.61a2.47,2.47,0,0,0-1.2,3.3l2,4.08a2.47,2.47,0,0,0,1.42,1.27,2.55,2.55,0,0,0,1.92-.09l3.28-1.54a2.72,2.72,0,0,1,3.09.56l0,0a2.62,2.62,0,0,1,.5,3l-1.44,3.06a2.41,2.41,0,0,0-.09,1.9,2.46,2.46,0,0,0,1.3,1.39l4.13,1.91a2.51,2.51,0,0,0,1.92.08,2.44,2.44,0,0,0,1.41-1.28l1.44-3.06A2.7,2.7,0,0,1,383.06,180.65Z" transform="translate(1 0)"/><path class="cls-3" d="M383.18,173a10.08,10.08,0,0,1-4.2-.85,8.79,8.79,0,0,1-4.68-5.91,11.56,11.56,0,0,1,.64-7.81,8.43,8.43,0,0,1,6.11-4.44,13.13,13.13,0,0,1,8,.84,10,10,0,0,1,5.13,5.23,8.8,8.8,0,0,1-.2,7.16h0C392.35,170.64,387.57,173,383.18,173Zm.56-19.11a12.38,12.38,0,0,0-2.66.28,8.2,8.2,0,0,0-6,4.33,11.36,11.36,0,0,0-.64,7.7,8.63,8.63,0,0,0,4.59,5.79c4.89,2.26,12.61-.28,14.76-4.84l.08,0-.08,0a8.63,8.63,0,0,0,.2-7,9.82,9.82,0,0,0-5-5.14A12.83,12.83,0,0,0,383.74,153.85Z" transform="translate(1 0)"/><path class="cls-7" d="M306.58,298.71s-.76,4.93-2.8,7.45c-1.34,1.66-5,4.94-2.41,6,2.1.87,6.15-3,7.46-4s3.3-2.8,2.86-4.36a25,25,0,0,1-.61-7.3Z" transform="translate(1 0)"/><path class="cls-7" d="M321.31,294.88s1,4.89,0,7.95c-.67,2-3,6.37-.14,6.49,2.28.1,4.71-4.95,5.6-6.31s2.1-3.75,1.14-5.07a25.19,25.19,0,0,1-3.14-6.63Z" transform="translate(1 0)"/><path class="cls-9" d="M319.88,298.33c-27.28-18-25.93-33.77-22.15-39.94,4.39-7.17,11.34-12.83,22-15.36a61.21,61.21,0,0,1,7.8-1.29,5.43,5.43,0,0,1,6,5.52l-.24,9.18h0c-4.55-.09-18.36,1.28-22,8.56-.75,1.52,17.61,22.86,16.92,26.69C327.48,296,322.55,300.1,319.88,298.33Z" transform="translate(1 0)"/><path class="cls-9" d="M309.3,301a5.4,5.4,0,0,1-5.45-5.69c.41-6.89,1.7-18.61,5.76-27.47a37.87,37.87,0,0,1,10.86-13.58,60.81,60.81,0,0,1,13.18-8c8.37-3.82,14.41-3.28,14.41-3.28l4.58,6.68c-.06,0,1.28,6.74-8.4,12.73-5.34,3.31-16.08,5.34-20.49,13.89-3.16,6.11-4.36,14.2-4.76,19.86a5.22,5.22,0,0,1-5.21,4.82Z" transform="translate(1 0)"/><path class="cls-10" d="M315.53,219.35a59.2,59.2,0,0,0-7.64,21.26c-1.33,8.4,14.12-1.38,14.12-1.38l.69-17.55Z" transform="translate(1 0)"/><path class="cls-11" d="M343.66,214.5s-4.28-7.24-14.16-5-13.91,12.21-14.62,36.19c0,0,5.94,10.39,32.93,8.36,3-.22,7.27-.62,5.81-5.41C350.9,239.7,348.27,221.91,343.66,214.5Z" transform="translate(1 0)"/><path class="cls-11" d="M354.53,216.62l-10.16,1.89s-17.77,5.2-22.75,5.24a8.07,8.07,0,0,1-7-3.56A26.17,26.17,0,0,1,327,210.28a25,25,0,0,1,2.49-.8,18.56,18.56,0,0,1,4.41-.73C350.69,208.56,354.53,216.62,354.53,216.62Z" transform="translate(1 0)"/><path class="cls-3" d="M354.53,216.62c.22.79-1.91,2.12-4.76,3s-5.33.87-5.55.08,1.91-2.12,4.76-3S354.31,215.83,354.53,216.62Z" transform="translate(1 0)"/><path class="cls-3" d="M304.88,285.84h-.16a74.93,74.93,0,0,1,2.36-13.2c1.78-6.44,5.23-14.91,11.58-18.67l.09.14c-3.48,2.06-8.3,7-11.51,18.57A75.64,75.64,0,0,0,304.88,285.84Z" transform="translate(1 0)"/><path class="cls-3" d="M318.79,297.55h-.17a48.65,48.65,0,0,1,3.27-17.08l.16.07A48.35,48.35,0,0,0,318.79,297.55Z" transform="translate(1 0)"/><path class="cls-3" d="M325.35,210s2.31-1.17,2.56-2.53,1.18-1,1.66-1.42-1.3-3.85-1.3-3.85l-5.14-1.33,1.11,6.26Z" transform="translate(1 0)"/><path class="cls-10" d="M335.74,208.76a3,3,0,0,1-2.58-1.52l-1.62-2.92-.46-.85-2.76-5,.9,5.35.55,3.21.16.91a1.49,1.49,0,0,1-1.08,1.67h0c-.34.69-.77,2.06.94,2.42,2,.43,5-1.38,6-3.29Z" transform="translate(1 0)"/><path class="cls-12" d="M331.54,204.23v.09a3.43,3.43,0,0,1-1.76,2.74h0l-.55-3.21a2.93,2.93,0,0,1,1.86-.37A.76.76,0,0,1,331.54,204.23Z" transform="translate(1 0)"/><ellipse class="cls-10" cx="328.15" cy="199.37" rx="5.14" ry="6.27" transform="matrix(1, -0.1, 0.1, 1, -17.17, 33.56)"/><path class="cls-2" d="M325.79,203.67a11.11,11.11,0,0,0,3.43-.89,1.69,1.69,0,0,1-1.57,2C326.56,204.93,325.79,203.67,325.79,203.67Z" transform="translate(1 0)"/><path class="cls-3" d="M327.66,199.48s-.06,0-.08-.06a.12.12,0,0,1,.05-.16,1.3,1.3,0,0,1,1.54.2.11.11,0,0,1,0,.16s-.11,0-.17,0a2.07,2.07,0,0,0-1.27-.16A.11.11,0,0,1,327.66,199.48Z" transform="translate(1 0)"/><path class="cls-3" d="M329,200.58a.46.46,0,0,1-.3.54c-.2,0-.4-.18-.43-.45s.1-.52.3-.54S328.91,200.3,329,200.58Z" transform="translate(1 0)"/><path class="cls-3" d="M325.66,201.1c0,.28-.07.53-.27.56s-.4-.15-.45-.42a.44.44,0,0,1,.26-.56C325.4,200.65,325.6,200.83,325.66,201.1Z" transform="translate(1 0)"/><path class="cls-3" d="M330.25,195.15a8.91,8.91,0,0,0-6,9l.06.72a3.62,3.62,0,0,1,3.09,2.88c.12.8-2.1,2.39-2.27,2.34-1.29-.43-4.78-3.1-4.62-9.05s2.06-10.5,7.51-11.19,5.06,3,5.06,3A5.13,5.13,0,0,1,330.25,195.15Z" transform="translate(1 0)"/><path class="cls-3" d="M329.49,195.23l.26.15a5.83,5.83,0,0,1,2.6,3.4c.55,2.36-1.63,4.06-.82,5.85s2.3-.45,3.7-.26,2.34-.54,2.17-3.25-1.41-9-4.64-8.65Z" transform="translate(1 0)"/><path class="cls-10" d="M333.26,199.85a1.27,1.27,0,0,1-1.8.29,1.39,1.39,0,0,1,.11-1.88,1.28,1.28,0,0,1,1.8-.3A1.39,1.39,0,0,1,333.26,199.85Z" transform="translate(1 0)"/><path class="cls-2" d="M323.22,207.28a.06.06,0,0,1-.06-.05,14.53,14.53,0,0,1,1.69-10,7.05,7.05,0,0,1,3.24-2.89,3.82,3.82,0,0,1,1.63-.32.05.05,0,0,1,0,.06.06.06,0,0,1-.06.06s-2.64-.16-4.76,3.16a14.4,14.4,0,0,0-1.67,9.87s0,.06,0,.07Z" transform="translate(1 0)"/><path class="cls-2" d="M335.07,202.28h0a.07.07,0,0,1,0-.08c1-2.63-.06-6.92-1.2-8.13a2.24,2.24,0,0,0-2.65-.34.06.06,0,0,1-.06-.1,2.38,2.38,0,0,1,2.8.36c1.16,1.22,2.21,5.59,1.23,8.25A.05.05,0,0,1,335.07,202.28Z" transform="translate(1 0)"/><path class="cls-2" d="M322.41,202.5a.06.06,0,0,1-.06-.06,24.39,24.39,0,0,1,.22-3.89c.38-2.72,1.19-4.43,2.39-5.08a5.6,5.6,0,0,1,5.26-.12.07.07,0,1,1-.07.11,4.56,4.56,0,0,0-1.51-.51,5.57,5.57,0,0,0-3.62.63c-2.79,1.51-2.55,8.78-2.55,8.85a.06.06,0,0,1-.06.07Z" transform="translate(1 0)"/><path class="cls-10" d="M293.08,218a8.4,8.4,0,0,1-3.4-1.19c-3.45-2.1-5.77-6.53-7.51-14.38a38.24,38.24,0,0,0-3.16-8l7.78-4.13a46.49,46.49,0,0,1,4,10.27c.6,2.72.92-14.48,2.41-16.11.91-1,4.59.65,4.59.65a86.82,86.82,0,0,1,2.92,13.65,65.61,65.61,0,0,1,.64,10.15,16.16,16.16,0,0,1-.67,4.47,6.18,6.18,0,0,1-4.32,4.41A8.78,8.78,0,0,1,293.08,218Z" transform="translate(1 0)"/><path class="cls-13" d="M294.25,217.11a3,3,0,0,1-1.18-.22c-.34-.15-.53-.37-.54-.61s.19-.46.54-.62a2.85,2.85,0,0,1,1.18-.23h0c1,0,1.71.37,1.71.84s-.75.84-1.72.84Zm0-1.45a2.67,2.67,0,0,0-1.08.2c-.26.12-.41.27-.41.42s.15.29.41.4a2.57,2.57,0,0,0,1.08.2c.88,0,1.49-.32,1.49-.61s-.61-.61-1.48-.61Z" transform="translate(1 0)"/><path class="cls-13" d="M289.91,209.34a.12.12,0,0,1-.12-.1c0-.05-.59-4.85,1.21-8.62a.11.11,0,0,1,.15-.05.12.12,0,0,1,.06.15c-1.78,3.71-1.19,8.45-1.19,8.49a.11.11,0,0,1-.1.13Z" transform="translate(1 0)"/><path class="cls-10" d="M298.63,190.69s4.73.39,6.58-1.43,2.82-5.54,1.43-4.65a17.24,17.24,0,0,0-2.85,2.51s2.95-3.61,1.8-3.93S301.9,186,301.9,186s3.17-4.57,2-4.52-3.57,3.54-3.57,3.54,2.78-4.38,1.4-4.29-2.27,3.63-3.42,3.32-5.63-1.41-5.63,1.79Z" transform="translate(1 0)"/><path class="cls-13" d="M302.29,188.42a.09.09,0,0,1-.09-.09.09.09,0,0,1,.09-.1c.75,0,1.41-1.15,1.42-1.16a.1.1,0,0,1,.13,0,.1.1,0,0,1,0,.13c0,.05-.72,1.2-1.58,1.25Z" transform="translate(1 0)"/><path class="cls-13" d="M300.11,187.58a.09.09,0,0,1-.09-.08.09.09,0,0,1,.07-.11,3.22,3.22,0,0,0,1.73-1.4.09.09,0,0,1,.13,0,.1.1,0,0,1,0,.13,3.39,3.39,0,0,1-1.85,1.48Z" transform="translate(1 0)"/><path class="cls-13" d="M298.65,186.5h0a.09.09,0,0,1-.09-.09.09.09,0,0,1,.09-.1h0c.8,0,1.57-1.29,1.58-1.3a.09.09,0,0,1,.13,0,.1.1,0,0,1,0,.13S299.56,186.5,298.65,186.5Z" transform="translate(1 0)"/><path class="cls-3" d="M273.92,296.44s.14,2.6,1.94,3.29,7,1.22,5.11,2.95c-1.08,1-6.32.51-7.8.55s-2.84.71-4-.24-.18-6.42-.18-6.42a6,6,0,0,0,2.44.56A4.79,4.79,0,0,0,273.92,296.44Z" transform="translate(1 0)"/><path class="cls-4" d="M287.17,217.26s.68,11.77-2.5,34.47c-2.3,16.38-5.09,32.91-6.46,40.83a6.2,6.2,0,0,1-5.67,5.15l-1.52.1a5.2,5.2,0,0,1-5.5-5.45l2.41-53.42.47-17.57Z" transform="translate(1 0)"/><path class="cls-3" d="M257,296.89s.14,2.61,1.94,3.29,7,1.22,5.11,2.95c-1.08,1-6.33.51-7.8.55s-2.84.71-4-.24-.17-6.42-.17-6.42a6,6,0,0,0,2.43.56A4.81,4.81,0,0,0,257,296.89Z" transform="translate(1 0)"/><path class="cls-4" d="M270.27,217.71s.68,11.77-2.51,34.47c-2.29,16.38-5.08,32.91-6.46,40.83a6.19,6.19,0,0,1-5.66,5.15l-1.53.1a5.19,5.19,0,0,1-5.49-5.45L251,239.4l.47-17.58Z" transform="translate(1 0)"/><path class="cls-3" d="M249.88,231.18c.08,1.42,8.78,1.75,19.51,1.13s19.27-2.32,19.2-3.74-8.74-2-19.48-1.4S249.81,229.76,249.88,231.18Z" transform="translate(1 0)"/><path class="cls-11" d="M251.41,190.87s1.7-7.49,15.71-7.94c20.21-.65,18.84,17.77,21.47,45.64,0,0-20-2.25-38.73,2.26C249.86,230.83,247.34,202.37,251.41,190.87Z" transform="translate(1 0)"/><path class="cls-11" d="M246.21,189.94l9.29,4.77s20.09,1.27,25.39.26,6.65-4.92,6.65-4.92a29.47,29.47,0,0,0-15.5-6.94c-.91-.12-1.85-.2-2.83-.24a28.08,28.08,0,0,0-4.86.23C252.18,184.78,246.21,189.94,246.21,189.94Z" transform="translate(1 0)"/><path class="cls-10" d="M265.15,181.27l1-3.4.28-1,1.66-5.83.39,5.75.24,3.45.07,1.09c.05.74.52.88,1.09,1.51.23.26,1.72,1.8.1,2.56-2,.95-5.86-.3-7.36-2C262.59,183.37,264.84,182.37,265.15,181.27Z" transform="translate(1 0)"/><path class="cls-4" d="M286.93,229.77s-11.73-3.08-35.71,2.21l-.09,3.44,35.36.29Z" transform="translate(1 0)"/><path class="cls-3" d="M246,190.16c-.75,1.11.45,3.22,2.68,4.72s4.64,1.83,5.39.72-.46-3.22-2.69-4.73S246.77,189.05,246,190.16Z" transform="translate(1 0)"/><path class="cls-10" d="M244.81,234.31c.59-9.2,2.06-22.92,6.2-33.43a31.63,31.63,0,0,1,2.12-4.68c.62-1.08-.6-3.37-2.44-4.43s-4.39-.76-4.79-.23a27.06,27.06,0,0,0-2.53,5.29c-3.87,9.37-6.72,21.91-7.3,37.36Z" transform="translate(1 0)"/><path class="cls-14" d="M271.46,167.8a7.48,7.48,0,0,1,.64,3.1c0,1.79-2.65-2.08-2.65-2.08Z" transform="translate(1 0)"/><ellipse class="cls-10" cx="267.51" cy="173.03" rx="5.19" ry="6.21" transform="translate(-42.23 102.73) rotate(-20.15)"/><path class="cls-3" d="M262.11,173l2.41-.75a1.86,1.86,0,0,0,1.17-1.07c.34-.89.86-1.41,3.18-1.79,2.93-.49,4.49-2.59,4.5-4.16a1.78,1.78,0,0,0-3-1.32c-1.31,1-1.05-.89-2.5-.8-2.7.18-2.77,2.28-4.94,2.66-2.83.48-7.44,3.63-4,8Z" transform="translate(1 0)"/><path class="cls-3" d="M267.72,172.72a.08.08,0,0,0,0-.09.1.1,0,0,0-.11-.09,1.15,1.15,0,0,0-1.05.91.1.1,0,0,0,.07.13c.06,0,.1,0,.13-.07a1.8,1.8,0,0,1,.87-.76A.06.06,0,0,0,267.72,172.72Z" transform="translate(1 0)"/><path class="cls-3" d="M267.55,174.12c.11.22.34.34.5.26a.41.41,0,0,0,.09-.55c-.12-.23-.34-.34-.5-.26A.39.39,0,0,0,267.55,174.12Z" transform="translate(1 0)"/><path class="cls-3" d="M271.48,171.64a.07.07,0,0,0,0-.06.12.12,0,0,0-.07-.13.74.74,0,0,0-1,.33.12.12,0,0,0,0,.15.09.09,0,0,0,.12,0,1.1,1.1,0,0,1,.85-.28A.06.06,0,0,0,271.48,171.64Z" transform="translate(1 0)"/><path class="cls-3" d="M270.75,172.88c0,.25.19.44.37.42s.31-.22.29-.47-.18-.44-.36-.42S270.73,172.63,270.75,172.88Z" transform="translate(1 0)"/><path class="cls-3" d="M258.88,173.82s2.46,3.29,4.92,3.07c0,0-2.52-2.38,1.24-4.9C265,172,261.14,172.17,258.88,173.82Z" transform="translate(1 0)"/><path class="cls-10" d="M262.7,175.14a1,1,0,1,0,.72-1.87,1.09,1.09,0,0,0-1.42.53A1.07,1.07,0,0,0,262.7,175.14Z" transform="translate(1 0)"/><path class="cls-3" d="M265,172s.3,3.12,1,3.57,4.94-.15,6.72-1.28h0a4.05,4.05,0,0,1-2.48,4.68,6,6,0,0,1-2,.4h0A4.17,4.17,0,0,1,264.7,178a11.7,11.7,0,0,1-.24-2.77,2.66,2.66,0,0,0-1-1.95A4,4,0,0,1,265,172Z" transform="translate(1 0)"/><path class="cls-3" d="M269.76,163.76a.79.79,0,0,1-.74-.51l.14,0a.64.64,0,0,0,.84.38l0,.14Z" transform="translate(1 0)"/><path class="cls-2" d="M269.52,168.41l0-.06a8.8,8.8,0,0,0,1.45-1c.65-.54,1.39-1.35,1.29-2.19-.06-.45-.19-.73-.42-.85s-.89,0-1.36.25l-.21.1,0-.07.21-.09c.48-.22,1-.47,1.43-.26a1.15,1.15,0,0,1,.45.92C272.5,166.84,269.65,168.35,269.52,168.41Z" transform="translate(1 0)"/><path class="cls-2" d="M261.82,166.58v-.07A5.14,5.14,0,0,0,266,164.3l.06,0A5.2,5.2,0,0,1,261.82,166.58Z" transform="translate(1 0)"/><path class="cls-2" d="M270.55,176.77a.46.46,0,1,1-.87.18.5.5,0,0,1,.32-.63A.51.51,0,0,1,270.55,176.77Z" transform="translate(1 0)"/><path class="cls-13" d="M241.93,213.16h-.14c-.71-.1-1.18-1-1-2a2.32,2.32,0,0,1,.54-1.21,1.21,1.21,0,0,1,1-.43c.71.1,1.19,1,1,2a2.29,2.29,0,0,1-.54,1.21A1.19,1.19,0,0,1,241.93,213.16Zm.24-3.3a.86.86,0,0,0-.63.32,1.84,1.84,0,0,0-.45,1c-.11.79.23,1.53.75,1.6a.83.83,0,0,0,.71-.32,1.81,1.81,0,0,0,.45-1c.11-.8-.23-1.53-.75-1.61Z" transform="translate(1 0)"/><path class="cls-10" d="M236.22,231.11s7.49.22,7.74.76c.59,1.24,1.19,3.93,1.76,5.18.24.54.94,2.42.43,2.73s-1.72-1-2.25-1.62c-.74,3.83-2.87,9.12-2.61,1h0c-.17.81-1,5.93-2.24,5.77-.92-.12-.25-4.94,0-6.28h0c-.39,1.34-1.06,5.37-2.1,5.13-.88-.2-.07-5.79-.07-5.79s-1.11,4.55-1.86,3.68.23-5.09.51-6.39S236.22,231.11,236.22,231.11Z" transform="translate(1 0)"/><path class="cls-3" d="M284,194.21a17.81,17.81,0,0,0-2.68-4.64l.19-.14a18.32,18.32,0,0,1,2.71,4.71Z" transform="translate(1 0)"/><path class="cls-3" d="M267.25,256.8l-.23,0c0-.1,1.32-9.75,2.3-13.21s5.55-6.51,5.6-6.54l.13.19c-.05,0-4.54,3-5.51,6.41S267.26,256.7,267.25,256.8Z" transform="translate(1 0)"/><path class="cls-11" d="M144.34,306s-.21.48-.65,1.26a.43.43,0,0,0,0,.07h0a27.06,27.06,0,0,1-4.64,5.9,8.79,8.79,0,0,1-3.19,1.86h0l-.85.26h0a28.35,28.35,0,0,1-14.32-.35h0l-.77-.24h0q-.57-.18-1.11-.39a10.71,10.71,0,0,1-2.87-1.64l-.28-.25a9.25,9.25,0,0,1-3-6.49Z" transform="translate(1 0)"/><path class="cls-5" d="M145.36,300.34v4.08c0,2.52-7.68,4.57-17.14,4.57s-17.15-2.05-17.15-4.57v-4.08c0-1.29,4.42-2.38,10.69-2.84,2-.14,4.17-.23,6.46-.23C137.68,297.27,145.36,298.64,145.36,300.34Z" transform="translate(1 0)"/><path class="cls-3" d="M145.36,300.34a1,1,0,0,1-.47.71c-1.8,1.34-8.58,2.35-16.67,2.35-2.27,0-4.44-.08-6.42-.23-6.29-.45-10.73-1.55-10.73-2.83s4.42-2.38,10.69-2.84c2-.14,4.17-.23,6.46-.23C137.68,297.27,145.36,298.64,145.36,300.34Z" transform="translate(1 0)"/><path class="cls-3" d="M129.25,258.06c-1.65,1-2.44.73-2.82.08s-.2-1.45,1.45-2.42a8.65,8.65,0,0,1,5.13-1.44S132.29,256.27,129.25,258.06Z" transform="translate(1 0)"/><path class="cls-3" d="M129.17,270.4c-1.25,1.45-2.08,1.48-2.64,1s-.66-1.31.58-2.75a8.6,8.6,0,0,1,4.39-3S131.46,267.73,129.17,270.4Z" transform="translate(1 0)"/><path class="cls-3" d="M128.41,302.53l-.36,0a50.15,50.15,0,0,0-1.42-13.8A70,70,0,0,0,111,258.54l.27-.23A70.06,70.06,0,0,1,127,288.63,50.18,50.18,0,0,1,128.41,302.53Z" transform="translate(1 0)"/><path class="cls-3" d="M120.89,272.53l-.3-.2c7.07-11,2.81-24.41,2.77-24.55l.34-.11C123.74,247.81,128.06,261.35,120.89,272.53Z" transform="translate(1 0)"/><path class="cls-3" d="M115.46,266.68a12.77,12.77,0,0,1-6.47-1.86l.2-.3a12.09,12.09,0,0,0,7.92,1.66l.06.36A10.19,10.19,0,0,1,115.46,266.68Z" transform="translate(1 0)"/><path class="cls-3" d="M127.8,294.41a24.55,24.55,0,0,1-17.86-10.74,5.44,5.44,0,0,0-.34-.46l0,0,.11-.34c.1,0,.17.12.49.57a24.14,24.14,0,0,0,17.6,10.59Z" transform="translate(1 0)"/><path class="cls-3" d="M117.32,290.52l-.35-.09c1.28-4.72-1.88-11.67-1.91-11.74l.33-.15a29.57,29.57,0,0,1,1.46,4.14C117.44,284.86,118,288,117.32,290.52Z" transform="translate(1 0)"/><path class="cls-3" d="M110.71,256.53c1.91,1.72,2.07,2.68,1.57,3.24s-1.48.49-3.38-1.23c-3.48-3.14-4.26-5.65-4.26-5.65S107.18,253.35,110.71,256.53Z" transform="translate(1 0)"/><path class="cls-3" d="M110,263.66c2.34,1.06,2.78,1.93,2.47,2.61s-1.25.91-3.59-.15c-4.27-1.94-5.76-4.11-5.76-4.11S105.63,261.69,110,263.66Z" transform="translate(1 0)"/><path class="cls-3" d="M116.14,277.52c.87,1.69.59,2.47-.07,2.81s-1.46.12-2.34-1.58a8.51,8.51,0,0,1-1.15-5.19S114.52,274.39,116.14,277.52Z" transform="translate(1 0)"/><path class="cls-3" d="M119.15,260.93c.44,1.86,0,2.55-.75,2.72s-1.45-.24-1.88-2.1a8.51,8.51,0,0,1,.14-5.32S118.35,257.51,119.15,260.93Z" transform="translate(1 0)"/><path class="cls-3" d="M122.09,288.61c-.11,1.91-.74,2.44-1.49,2.4s-1.32-.64-1.21-2.55A8.57,8.57,0,0,1,121,283.4S122.28,285.1,122.09,288.61Z" transform="translate(1 0)"/><path class="cls-3" d="M111.57,283.35c1.22,1.47,1.11,2.29.54,2.77s-1.41.42-2.62-1.05a8.55,8.55,0,0,1-2.25-4.82S109.32,280.64,111.57,283.35Z" transform="translate(1 0)"/><path class="cls-3" d="M124.46,246.21c.6,2.5.19,3.38-.54,3.56s-1.49-.43-2.09-2.93c-1.09-4.55-.31-7.07-.31-7.07S123.35,241.59,124.46,246.21Z" transform="translate(1 0)"/><path class="cls-5" d="M128.67,303s-9.4-35.05-18.83-32.15,11.51,22.1,13.92,32.39Z" transform="translate(1 0)"/><path class="cls-15" d="M127.29,301.43S112.9,273.3,103.92,277.5s14.64,16.71,18.51,25Z" transform="translate(1 0)"/><path class="cls-16" d="M124.51,302.1c-4.92-11.08-17.89-20.74-18-20.84l.24-.32c.13.1,13.18,9.82,18.14,21Z" transform="translate(1 0)"/><path class="cls-17" d="M157,277.23c-.08.19-.16.39-.25.59a18.39,18.39,0,0,1-2.24,3.72,5.68,5.68,0,0,0-1.1,4v.11c.13,2,.83,4.09.45,5.82,0,.12-.06.24-.1.36a4.19,4.19,0,0,1-2.38,2.47c-4.61,2.25-5.34,2.07-5.75,4,0,.12,0,.25-.07.38-.07.38-.13.82-.21,1.36a1.06,1.06,0,0,1-.5,1c-1.6,1.2-7.14,2.12-14,2.31h-.38c-.73,0-1.48,0-2.24,0-2.27,0-4.44-.08-6.42-.23a7.74,7.74,0,0,1,0-5.67,9.08,9.08,0,0,1,1.64-2.62c4.12-4.71,7.44-3.88,6.66-12.21a2.83,2.83,0,0,0,0-.29l0-.24c-1-8.89,11.07-5.05,14.07-8.05s5.06-6.37,10.47-5C158.35,270,158.47,273.63,157,277.23Z" transform="translate(1 0)"/><path class="cls-18" d="M156.19,270.07a121,121,0,0,0-11.4,11.36c-.11.11-.2.23-.3.34a88.91,88.91,0,0,0-9.82,13.58l-.18.31a46.87,46.87,0,0,0-3.65,7.7h-.38c.43-1.3,2.76-7.64,9.42-16.48l.23-.3A114.82,114.82,0,0,1,156,269.8Z" transform="translate(1 0)"/><path class="cls-18" d="M137.1,284.39c-4.93-.17-7.11-1.77-7.2-1.83l.22-.29s2.19,1.59,7,1.76Z" transform="translate(1 0)"/><path class="cls-18" d="M140.09,287c-2-.73-3.56-2.8-4.64-6a23.76,23.76,0,0,1-1-4.6l.35,0c0,.08,1,8.6,5.46,10.28Z" transform="translate(1 0)"/><path class="cls-18" d="M145.3,281.8a6.68,6.68,0,0,1-.92,0l0-.35A18.12,18.12,0,0,0,157,277.17l.23.27A18.33,18.33,0,0,1,145.3,281.8Z" transform="translate(1 0)"/><path class="cls-18" d="M153.42,285.88a8.54,8.54,0,0,1-4.93-2.37,6,6,0,0,1-1.32-1.86l.33-.13a7.54,7.54,0,0,0,6,4Z" transform="translate(1 0)"/><path class="cls-18" d="M143.62,298.85a15.75,15.75,0,0,1-9.31-3.33l.23-.28c.05,0,4.88,4.12,11.14,3.08l.06.36A12.88,12.88,0,0,1,143.62,298.85Z" transform="translate(1 0)"/><path class="cls-18" d="M138.29,297.64l-.31-.19c1.07-1.71,3.57-4,9.39-5.26a35.93,35.93,0,0,1,6.55-.74v.36C153.8,291.81,141.89,291.88,138.29,297.64Z" transform="translate(1 0)"/><path class="cls-5" d="M120.61,315c1.63-.14,3.52-.35,5.54-.69l.83-.14c5.68-1,12.2-3,16.67-6.85l.06-.05,0,0-.24-.19c-6.47,5.63-17.36,7.25-23.61,7.7h0Z" transform="translate(1 0)"/><path class="cls-5" d="M134.94,315.33h-.09a53.38,53.38,0,0,1-8.7-1h0l.07-.28.75.14a50.23,50.23,0,0,0,8.83.91h0Z" transform="translate(1 0)"/><path class="cls-5" d="M132.57,306c-3.08,2.26-8.28,5-16.72,6.74l-.28-.25c.8-.16,1.57-.34,2.31-.52h0l1.09-.27h0a39.78,39.78,0,0,0,13-5.7Z" transform="translate(1 0)"/><path class="cls-5" d="M123.79,306a13.71,13.71,0,0,1-5.91,6h0l0,0,.2.24c.32-.17.63-.35.92-.53h0a14,14,0,0,0,5.2-5.7Z" transform="translate(1 0)"/><path class="cls-8" d="M456.43,273.84a6.7,6.7,0,0,1-.44.63l0,0h0a15.28,15.28,0,0,1-3.18,3,6.91,6.91,0,0,1-2.2.93h0l-.58.13h0a26.56,26.56,0,0,1-9.84-.18h0l-.53-.12h0l-.77-.19a8.42,8.42,0,0,1-2-.83l-.2-.12a4.11,4.11,0,0,1-2.09-3.26Z" transform="translate(1 0)"/><path class="cls-19" d="M457.13,271v2.05c0,1.27-5.27,2.29-11.77,2.29s-11.77-1-11.77-2.29V271c0-.64,3-1.2,7.34-1.42,1.37-.08,2.87-.12,4.43-.12C451.86,269.47,457.13,270.16,457.13,271Z" transform="translate(1 0)"/><path class="cls-5" d="M457.13,271c0,.12-.11.24-.32.36-1.06.58-4.67,1-9.21,1.15h-.27l-1.9,0h-.07l-1.55,0h-1.12l-.72,0-.92,0h-.4c-4.15-.24-7.06-.78-7.06-1.41s2.08-1,5.23-1.27c.55-.05,1.14-.1,1.75-.13l.36,0h.13l.32,0,1.79-.06,1.33,0h.86c1.18,0,2.32,0,3.39.07H449c1.1.05,2.13.11,3.06.2h0l1,.1h0a21.29,21.29,0,0,1,2.78.46h0a5,5,0,0,1,.71.23C456.93,270.68,457.13,270.84,457.13,271Z" transform="translate(1 0)"/><path class="cls-11" d="M446.07,242.55c-1.13.66-1.67.5-1.93,0s-.14-1,1-1.66a5.9,5.9,0,0,1,3.52-1A5.77,5.77,0,0,1,446.07,242.55Z" transform="translate(1 0)"/><path class="cls-11" d="M446,251c-.86,1-1.43,1-1.82.68s-.45-.9.41-1.89a5.81,5.81,0,0,1,3-2.07A5.8,5.8,0,0,1,446,251Z" transform="translate(1 0)"/><path class="cls-11" d="M445.91,272.09l-.58-.44c.12-1,.23-2.46-1.06-8.07a47.92,47.92,0,0,0-10.76-20.7l.19-.16a48.24,48.24,0,0,1,10.82,20.82A50.42,50.42,0,0,1,445.91,272.09Z" transform="translate(1 0)"/><path class="cls-11" d="M440.34,252.48l-.21-.13c4.85-7.57,1.93-16.77,1.9-16.86l.23-.07C442.29,235.51,445.25,244.81,440.34,252.48Z" transform="translate(1 0)"/><path class="cls-11" d="M436.61,248.47a8.77,8.77,0,0,1-4.45-1.28l.14-.2a8.42,8.42,0,0,0,5.44,1.14l0,.24A6.85,6.85,0,0,1,436.61,248.47Z" transform="translate(1 0)"/><path class="cls-11" d="M445.08,267.5a16.77,16.77,0,0,1-12.26-7.37,2.88,2.88,0,0,0-.24-.31h0l.08-.23c.07,0,.11.08.33.39a16.6,16.6,0,0,0,12.08,7.27Z" transform="translate(1 0)"/><path class="cls-11" d="M437.88,264.84l-.24-.07c.88-3.24-1.28-8-1.31-8.06l.23-.1a21.58,21.58,0,0,1,1,2.84A11,11,0,0,1,437.88,264.84Z" transform="translate(1 0)"/><path class="cls-11" d="M433.34,241.5c1.31,1.18,1.43,1.84,1.08,2.22s-1,.34-2.32-.84a9.9,9.9,0,0,1-2.92-3.88A9.73,9.73,0,0,1,433.34,241.5Z" transform="translate(1 0)"/><path class="cls-11" d="M432.83,246.39c1.61.73,1.91,1.33,1.7,1.8s-.86.62-2.47-.11a9.94,9.94,0,0,1-4-2.82A9.76,9.76,0,0,1,432.83,246.39Z" transform="translate(1 0)"/><path class="cls-11" d="M437.07,255.91c.6,1.16.41,1.7-.05,1.93s-1,.08-1.6-1.08a5.88,5.88,0,0,1-.79-3.57A5.8,5.8,0,0,1,437.07,255.91Z" transform="translate(1 0)"/><path class="cls-11" d="M439.14,244.52c.3,1.28,0,1.75-.52,1.87s-1-.17-1.29-1.45a5.89,5.89,0,0,1,.1-3.65A5.77,5.77,0,0,1,439.14,244.52Z" transform="translate(1 0)"/><path class="cls-11" d="M441.16,263.53c-.07,1.3-.51,1.67-1,1.64s-.91-.44-.84-1.75a5.88,5.88,0,0,1,1.12-3.47A5.73,5.73,0,0,1,441.16,263.53Z" transform="translate(1 0)"/><path class="cls-11" d="M433.94,259.91c.83,1,.76,1.57.36,1.9s-1,.29-1.79-.71a5.89,5.89,0,0,1-1.55-3.32A5.81,5.81,0,0,1,433.94,259.91Z" transform="translate(1 0)"/><path class="cls-11" d="M442.78,234.41c.42,1.72.13,2.33-.36,2.44s-1-.29-1.44-2a10,10,0,0,1-.21-4.86A9.76,9.76,0,0,1,442.78,234.41Z" transform="translate(1 0)"/><path class="cls-19" d="M445.43,272.55h-.07l-1.55,0h-1.12l-.72,0a19.73,19.73,0,0,0-1.4-2.87c-.78-1.36-1.74-2.8-2.75-4.26h0l-1.17-1.67h0a55.33,55.33,0,0,1-4.86-7.67c-1.05-2.31-1.08-4,1-4.67,4.8-1.48,9.6,11.4,11.75,18.14C444.91,270.78,445.23,271.85,445.43,272.55Z" transform="translate(1 0)"/><path class="cls-11" d="M444.72,272.33l-.91.2h-1.12l-.72,0-.92,0a15.94,15.94,0,0,0-2.23-2.7c-5.24-5.3-15.18-11.48-10.13-13.84a3.67,3.67,0,0,1,3.1.11c4.2,1.82,9,9.32,11.38,13.49C444.14,271.19,444.72,272.33,444.72,272.33Z" transform="translate(1 0)"/><path class="cls-16" d="M443,272.52h-.31a22.86,22.86,0,0,0-1.63-2.93,36.93,36.93,0,0,0-3.24-4.23h0a53.9,53.9,0,0,0-7.37-6.87l.16-.22a54.23,54.23,0,0,1,6,5.42h0a39.88,39.88,0,0,1,4.73,5.88A24.42,24.42,0,0,1,443,272.52Z" transform="translate(1 0)"/><path class="cls-17" d="M465.16,255.71l-.18.41h0a12.45,12.45,0,0,1-1.54,2.55,3.91,3.91,0,0,0-.75,2.73h0v.08c.09,1.4.57,2.8.31,4a1.82,1.82,0,0,1-.07.25,2.9,2.9,0,0,1-1.63,1.7c-3.17,1.54-3.67,1.42-3.95,2.77h0a2.38,2.38,0,0,0-.05.26h0l-.74.09c.37.14.57.3.57.47s-.11.24-.32.36c-1.06.58-4.67,1-9.21,1.15h-.27l-2,0c-1.55,0-3,0-4.4-.12h-.31a5.17,5.17,0,0,1,.28-2.79l0,0a6.21,6.21,0,0,1,1.1-1.76c2.84-3.23,5.12-2.67,4.58-8.39a1.23,1.23,0,0,0,0-.19h0c0-.05,0-.1,0-.16-.66-6.1,7.6-3.46,9.66-5.53s3.47-4.37,7.18-3.46C466.06,250.73,466.14,253.24,465.16,255.71Z" transform="translate(1 0)"/><path class="cls-18" d="M464.57,250.79a84.76,84.76,0,0,0-7.83,7.8h0l-.21.24a60.57,60.57,0,0,0-6.73,9.32,1.59,1.59,0,0,0-.13.22h0c-.24.41-.45.81-.65,1.18-.66,1.23-1.11,2.24-1.42,3h-.27c.3-.73.76-1.74,1.42-3a54,54,0,0,1,4.62-7.2l.16-.2a78.24,78.24,0,0,1,10.88-11.53Z" transform="translate(1 0)"/><path class="cls-18" d="M451.47,260.63a9.3,9.3,0,0,1-5-1.26l.15-.2a9.23,9.23,0,0,0,4.8,1.21Z" transform="translate(1 0)"/><path class="cls-18" d="M453.52,262.4c-1.35-.5-2.45-1.92-3.19-4.11a15.78,15.78,0,0,1-.72-3.16l.24,0s.66,5.9,3.75,7.06Z" transform="translate(1 0)"/><path class="cls-18" d="M457.09,258.85a5.85,5.85,0,0,1-.63,0l0-.24a12.41,12.41,0,0,0,8.63-2.91l.17.19A12.64,12.64,0,0,1,457.09,258.85Z" transform="translate(1 0)"/><path class="cls-18" d="M462.67,261.65a5.88,5.88,0,0,1-3.38-1.62,4.26,4.26,0,0,1-.91-1.28l.23-.1a5.11,5.11,0,0,0,4.09,2.75Z" transform="translate(1 0)"/><path class="cls-18" d="M457.4,270.44h-.1l-.74.09-.62,0a10.05,10.05,0,0,1-3.86-.81h0a11,11,0,0,1-2.41-1.38h0l-.13-.1.17-.19.09.07a10.28,10.28,0,0,0,2.33,1.35l.23.1c.22.09.46.17.7.25h0a9.51,9.51,0,0,0,2.78.46h0a7.84,7.84,0,0,0,1.5-.12h0Z" transform="translate(1 0)"/><path class="cls-18" d="M452.28,269.73l-.21-.14c.73-1.17,2.45-2.76,6.45-3.6a24.34,24.34,0,0,1,4.49-.52v.25C462.93,265.72,454.75,265.77,452.28,269.73Z" transform="translate(1 0)"/><polygon class="cls-19" points="458.31 280.08 430.72 280.08 430.72 311.25 456.46 311.25 458.31 280.08"/><polygon class="cls-15" points="445.49 280.08 415.75 280.08 417.06 311.25 445.49 311.25 445.49 280.08"/><polygon class="cls-11" points="459.06 277.78 414.73 277.78 413.96 281.12 459.06 281.68 459.06 277.78"/><path class="cls-8" d="M439.92,306.6H419.71a1.18,1.18,0,0,1-1.18-1.09l-.66-8a1.18,1.18,0,0,1,1.18-1.28h20.87a1.18,1.18,0,0,1,1.18,1.18v8A1.18,1.18,0,0,1,439.92,306.6Z" transform="translate(1 0)"/><path class="cls-8" d="M439.92,293.86H419.71a1.18,1.18,0,0,1-1.18-1.09l-.66-8a1.18,1.18,0,0,1,1.18-1.28h20.87a1.18,1.18,0,0,1,1.18,1.18v8A1.18,1.18,0,0,1,439.92,293.86Z" transform="translate(1 0)"/><polygon class="cls-5" points="446.25 277.78 446.25 281.52 459.06 281.68 459.06 277.78 446.25 277.78"/><path class="cls-3" d="M420.88,311.25l-.34,1.54a.85.85,0,0,1-1,.81c-.45,0-.77-.76-.65-1.46l.14-.89Z" transform="translate(1 0)"/><path class="cls-3" d="M440.09,311.25l.34,1.54a.86.86,0,0,0,1,.81c.45,0,.77-.76.66-1.46l-.14-.89Z" transform="translate(1 0)"/><path class="cls-3" d="M452.12,311.25l.34,1.54a.86.86,0,0,0,1,.81c.45,0,.77-.76.66-1.46l-.14-.89Z" transform="translate(1 0)"/><path class="cls-3" d="M429.35,286.37a1.14,1.14,0,0,1-.86-.36.78.78,0,0,1-.15-.66h0a1.07,1.07,0,0,1,1-1,1,1,0,0,1,1.09.9A1.09,1.09,0,0,1,429.35,286.37Zm-.79-1a.55.55,0,0,0,.11.47.89.89,0,0,0,1.55-.59c0-.43-.45-.68-.87-.68-.57,0-.75.61-.79.8Z" transform="translate(1 0)"/><path class="cls-3" d="M429.38,287.57h0a.28.28,0,0,1-.27-.28v-1.06a.27.27,0,0,1,.27-.27h0a.27.27,0,0,1,.28.27v1.06A.28.28,0,0,1,429.38,287.57Z" transform="translate(1 0)"/><path class="cls-3" d="M429.35,299.43a1.11,1.11,0,0,1-.86-.37.76.76,0,0,1-.15-.66h0a1.08,1.08,0,0,1,1-1,1,1,0,0,1,1.09.9A1.09,1.09,0,0,1,429.35,299.43Zm-.79-1a.55.55,0,0,0,.11.47.9.9,0,0,0,1.55-.6c0-.42-.45-.67-.87-.67-.57,0-.75.61-.79.8Z" transform="translate(1 0)"/><path class="cls-3" d="M429.38,300.62h0a.27.27,0,0,1-.27-.27v-1.06a.27.27,0,0,1,.27-.27h0a.27.27,0,0,1,.28.27v1.06A.27.27,0,0,1,429.38,300.62Z" transform="translate(1 0)"/><path class="cls-4" d="M439.65,267.17l-9.93-.33-11.25.29,0,.85,10.89-.49a2.09,2.09,0,0,1,1.91,2.24h0a2.08,2.08,0,0,1-2.06,2.1l-10.86-.36,0,.62,21.17.71a2.69,2.69,0,0,0,2.66-2.73h0A2.71,2.71,0,0,0,439.65,267.17Z" transform="translate(1 0)"/><path class="cls-4" d="M432.2,269.74h0a2.71,2.71,0,0,0-2.48-2.9l-11.25.29,0,.85,10.89-.49a2.09,2.09,0,0,1,1.91,2.24h0a2.08,2.08,0,0,1-2.06,2.1l-10.86-.36,0,.62,11.24.38A2.7,2.7,0,0,0,432.2,269.74Z" transform="translate(1 0)"/><path class="cls-20" d="M429.33,267.5l-10.89.48h0c1,.16,1.28,1.15,1.42,1.68.27,1.08-.54,1.7-1.54,1.8h0l10.86.36a2.08,2.08,0,0,0,2.06-2.1h0A2.08,2.08,0,0,0,429.33,267.5Z" transform="translate(1 0)"/><polygon class="cls-3" points="429.66 270.51 420.9 270.22 420.9 270.16 429.66 270.45 429.66 270.51"/><g class="cls-6"><path class="cls-5" d="M431.15,272.2a.1.1,0,0,1-.1-.05.11.11,0,0,1,0-.16,3,3,0,0,0,1-2.26,2.3,2.3,0,0,0-1-2.28.12.12,0,0,1,.11-.21,2.51,2.51,0,0,1,1.16,2.51,3.14,3.14,0,0,1-1.11,2.43A.07.07,0,0,1,431.15,272.2Z" transform="translate(1 0)"/></g><rect class="cls-3" x="419.86" y="269.58" width="6.73" height="0.06" transform="translate(-3.52 7.22) rotate(-0.97)"/><g class="cls-6"><path class="cls-5" d="M434.65,271.62h0l-2.13-.07a.13.13,0,0,1-.1-.06.1.1,0,0,1,0-.12,6.58,6.58,0,0,0,.58-1.49,2.53,2.53,0,0,0-.36-1.69.1.1,0,0,1,0-.12.13.13,0,0,1,.11-.06l2,.07a.12.12,0,0,1,.1.05,2.88,2.88,0,0,1-.12,3.45A.15.15,0,0,1,434.65,271.62Zm-1.93-.3,1.88.06a2.61,2.61,0,0,0,.1-3.07l-1.74-.06a2.48,2.48,0,0,1,.28,1.68A6.77,6.77,0,0,1,432.72,271.32Z" transform="translate(1 0)"/></g><path class="cls-5" d="M417.61,272.15h9.94l11.24.67v.85l-10.87-.85a2.08,2.08,0,0,0-2,2.17h0a2.08,2.08,0,0,0,2,2.17h10.87v.62H417.61A2.7,2.7,0,0,1,415,275h0A2.7,2.7,0,0,1,417.61,272.15Z" transform="translate(1 0)"/><path class="cls-5" d="M425,275h0a2.71,2.71,0,0,1,2.58-2.82l11.24.67v.85l-10.87-.85a2.08,2.08,0,0,0-2,2.17h0a2.08,2.08,0,0,0,2,2.17h10.87v.62H427.55A2.71,2.71,0,0,1,425,275Z" transform="translate(1 0)"/><path class="cls-20" d="M427.92,272.82l10.87.85h0c-1,.12-1.32,1.11-1.48,1.63-.31,1.07.49,1.72,1.48,1.84v0H427.92a2.08,2.08,0,0,1-2-2.17h0A2.08,2.08,0,0,1,427.92,272.82Z" transform="translate(1 0)"/><rect class="cls-3" x="429.49" y="275.8" width="8.77" height="0.06"/><path class="cls-3" d="M425.88,277.44a3.13,3.13,0,0,1-1-2.47,2.54,2.54,0,0,1,1.23-2.47l.11.21a2.31,2.31,0,0,0-1.11,2.25,3.05,3.05,0,0,0,.93,2.29Z" transform="translate(1 0)"/><polygon class="cls-3" points="438.31 275.33 431.59 275 431.59 274.94 438.32 275.27 438.31 275.33"/><path class="cls-3" d="M422.47,273.34h2a2.54,2.54,0,0,0-.43,1.76,6.41,6.41,0,0,0,.54,1.54h-2.12A2.73,2.73,0,0,1,422.47,273.34Z" transform="translate(1 0)"/><polygon class="cls-3" points="180.52 307.5 178.04 308 178.19 276.8 180.1 277.6 180.52 307.5"/><path class="cls-3" d="M186.86,309.24s-13.15.23-17.54.27c-.48,0-.83-.66-.83-1.14h0a1.34,1.34,0,0,1,1.19-1c4.3,0,17.18.18,17.18.18a.86.86,0,0,1,.88.86h0A.87.87,0,0,1,186.86,309.24Z" transform="translate(1 0)"/><path class="cls-3" d="M169.12,310.8a1.92,1.92,0,0,1,2-1.56,1.84,1.84,0,0,1,2,1.6,2.25,2.25,0,0,1-2.21,2.05A1.8,1.8,0,0,1,169.12,310.8Z" transform="translate(1 0)"/><path class="cls-3" d="M183.15,310.8a1.93,1.93,0,0,1,2-1.56,1.84,1.84,0,0,1,2,1.6,2.25,2.25,0,0,1-2.2,2.05A1.8,1.8,0,0,1,183.15,310.8Z" transform="translate(1 0)"/><path class="cls-3" d="M172.2,277.8s-.47,2.07,4.38,2.73a7,7,0,0,0,6.95-2.73Z" transform="translate(1 0)"/><path class="cls-4" d="M197.55,266.62c0-5.81-10-22.78-18.24-25-9.31-2.47-21.24-6.95-24.74,1.15s8.23,33,8.23,33a3.65,3.65,0,0,0,3,2.46c2.38.25,31.68,1.11,31.72,0C197.58,277.6,201.69,267.81,197.55,266.62Z" transform="translate(1 0)"/><path class="cls-10" d="M203,223.79l11.19,21.51s-8.87,5.6-9.41,4.4c-.14-.29-12.42-18.59-12.42-18.59Z" transform="translate(1 0)"/><path class="cls-7" d="M212.17,307.53s-.08,2.68,1.71,3.53,7.05,1.82,5,3.44c-1.19.92-6.51,0-8-.09s-3,.5-4-.57.36-6.58.36-6.58a6.21,6.21,0,0,0,2.45.78A4.94,4.94,0,0,0,212.17,307.53Z" transform="translate(1 0)"/><path class="cls-7" d="M227.15,306.22s-.08,2.68,1.71,3.53,7,1.82,5,3.44c-1.19.92-6.51,0-8-.09s-3,.5-4-.57.36-6.58.36-6.58a6.2,6.2,0,0,0,2.44.78A4.9,4.9,0,0,0,227.15,306.22Z" transform="translate(1 0)"/><path class="cls-19" d="M230.6,303.09c-1.34-17.55-1.65-29.4-7.26-37-6.15-8.32-22.62-14.21-29-14.58-10.35-.6-15.23.93-15.23.93-7.78,16,4.4,18.11,13.41,18.55l.89,0c5.45.34,15.15,1.71,18.82,7.07,2.91,4.25,4.92,10.21,5.77,25.58a5.5,5.5,0,0,0,5.65,5.16S231.08,309.4,230.6,303.09Z" transform="translate(1 0)"/><path class="cls-19" d="M215.9,304c.18-17.6.73-26.58-4.61-34.38-3.43-5-8.58-8.8-15.33-11.25a59.61,59.61,0,0,0-16.82-3.18c-10.36-.6-15-1.84-15-1.84-8.38,20.47,22.28,16.13,30.26,24.85,3.48,3.8,7.79,11,8.64,26.4a5.48,5.48,0,0,0,5.65,5.16S215.84,310.43,215.9,304Z" transform="translate(1 0)"/><path class="cls-3" d="M215.85,286.7c0-.1-.53-10.54-2.3-14.19-2.23-4.61-8.73-9.43-15.44-11.46l0-.11c6.74,2,13.26,6.88,15.51,11.52,1.78,3.67,2.31,14.13,2.31,14.24Z" transform="translate(1 0)"/><path class="cls-11" d="M172.25,218.14s4.8-8.11,15.85-5.62,13.68,14,14.48,40.82c0,0-8.37-.71-35.25,8.11-3.18,1.05-7.85.22-6.22-5.15C164.15,246.32,167.09,226.42,172.25,218.14Z" transform="translate(1 0)"/><path class="cls-11" d="M160.09,220.51l11.37,2.11s19.88,5.82,25.45,5.86a9,9,0,0,0,7.87-4,29.32,29.32,0,0,0-13.9-11.09,25.12,25.12,0,0,0-2.78-.89,20.58,20.58,0,0,0-4.94-.82C164.39,211.49,160.09,220.51,160.09,220.51Z" transform="translate(1 0)"/><path class="cls-3" d="M160.09,220.51c-.24.88,2.14,2.36,5.33,3.3s6,1,6.21.09-2.14-2.36-5.32-3.3S160.34,219.62,160.09,220.51Z" transform="translate(1 0)"/><path class="cls-10" d="M188.35,256.47s6.39-.36,8,1,2.72,4.32,1.52,3.7a14.49,14.49,0,0,1-2.52-1.85s2.69,2.74,1.77,3.08-3.23-2.06-3.23-2.06,2.93,3.51,2,3.56-3.18-2.64-3.18-2.64,2.59,3.37,1.46,3.4-2.13-2.8-3-2.45-3.54,2.32-4.82-.09Z" transform="translate(1 0)"/><path class="cls-10" d="M164.81,249.5c4.7,7.62,10.73,10.68,21.49,12.62l2.06-5.65c-7.84-1.41-11.85-7-15-12.13-4.48-7.27-3.68-16.13-3-20a1,1,0,0,0-.39-1c-1-.76-3.6-2.31-8.24-2.4a.89.89,0,0,0-.88.66A36.64,36.64,0,0,0,164.81,249.5Z" transform="translate(1 0)"/><g class="cls-21"><path class="cls-13" d="M167.17,248a1.75,1.75,0,0,1-.58-.11,2.58,2.58,0,0,1-1.32-1.39h0a2,2,0,0,1,.66-2.7,1.4,1.4,0,0,1,1.1,0,2.54,2.54,0,0,1,1.32,1.39,2,2,0,0,1-.66,2.7A1.34,1.34,0,0,1,167.17,248Zm-1.56-1.64a2.2,2.2,0,0,0,1.12,1.18,1,1,0,0,0,.81,0c.66-.28.87-1.27.47-2.22a2.22,2.22,0,0,0-1.12-1.19,1,1,0,0,0-.81,0c-.66.28-.87,1.27-.47,2.22Z" transform="translate(1 0)"/></g><path class="cls-3" d="M188.82,208.72l0-.12s1.29-.49,1.54-1.42a1.7,1.7,0,0,0-.48-1.57l-.58-.72c-1.24-1.48-1.7-2-1.59-3.4h.12c-.11,1.31.31,1.82,1.56,3.32l.59.71a1.84,1.84,0,0,1,.5,1.68C190.17,208.2,188.88,208.69,188.82,208.72Z" transform="translate(1 0)"/><path class="cls-3" d="M187.73,201.49a6.08,6.08,0,0,0,1.46,4.09c1.65,2,.36,3.73-1.61,3.14s-2.38,1.84-4.92.85S187.73,201.49,187.73,201.49Z" transform="translate(1 0)"/><path class="cls-10" d="M177.9,211.9a2.82,2.82,0,0,0,2.12-2l.9-3.08.26-.9,1.54-5.31.29,5.26.18,3.15.05.89c0,.74.69,1.81,1.43,1.85a1.2,1.2,0,0,1-.41,2c-1.81.84-5.09-.3-6.41-1.91Z" transform="translate(1 0)"/><path class="cls-3" d="M180.9,206.78s0,.06,0,.09a3.34,3.34,0,0,0,2.26,2.21h0l-.18-3.15a2.71,2.71,0,0,0-1.83.05A.72.72,0,0,0,180.9,206.78Z" transform="translate(1 0)"/><ellipse class="cls-10" cx="183.06" cy="201.47" rx="4.98" ry="6.09" transform="translate(-24.26 26.25) rotate(-7.67)"/><path class="cls-10" d="M178.9,202.92a1.23,1.23,0,0,0,1.76-.1,1.34,1.34,0,0,0-.51-1.76,1.23,1.23,0,0,0-1.76.1A1.34,1.34,0,0,0,178.9,202.92Z" transform="translate(1 0)"/><path class="cls-3" d="M183.55,201.47s.06,0,.06-.08a.11.11,0,0,0-.08-.14,1.22,1.22,0,0,0-1.41.51.11.11,0,0,0,0,.16.14.14,0,0,0,.16,0,1.93,1.93,0,0,1,1.18-.42Z" transform="translate(1 0)"/><path class="cls-3" d="M182.82,202.8c0,.27.2.47.4.45a.44.44,0,0,0,.3-.52.44.44,0,0,0-.4-.45A.44.44,0,0,0,182.82,202.8Z" transform="translate(1 0)"/><path class="cls-3" d="M187.64,201.54a.12.12,0,0,0,.09,0,.1.1,0,0,0,0-.15,1.23,1.23,0,0,0-1.51-.07.1.1,0,0,0,0,.15c0,.06.09.06.15,0a1.93,1.93,0,0,1,1.25.06Z" transform="translate(1 0)"/><path class="cls-3" d="M186.45,202.5c-.08.25,0,.51.19.56s.41-.1.49-.36a.44.44,0,0,0-.2-.57C186.74,202.08,186.53,202.24,186.45,202.5Z" transform="translate(1 0)"/><path class="cls-3" d="M184.52,196.26a2.83,2.83,0,0,1-2.43,2.8c-2.6.69-4.28,2-3.68,3.87s5.37,5.21,2.43,7.12-2.63-1-5.94.08-4.51-3.32-2.5-6.22.16-9.67,9-10.47,6.49,6.52,6.49,6.52S184.82,198.57,184.52,196.26Z" transform="translate(1 0)"/><path class="cls-2" d="M180,210.55l0-.06a1.74,1.74,0,0,0,1-1.27c.2-1.42-1.71-3.32-3.4-5-.45-.45-.87-.87-1.25-1.27a3.34,3.34,0,0,1-.71-3.83,3.92,3.92,0,0,1,4.06-1.94,5,5,0,0,0,3.51-.77,3.2,3.2,0,0,0,1-1l.07,0s-1.15,2.18-4.55,1.84a3.85,3.85,0,0,0-4,1.9,3.24,3.24,0,0,0,.7,3.75c.38.4.8.82,1.25,1.27,1.7,1.68,3.63,3.6,3.42,5A1.84,1.84,0,0,1,180,210.55Z" transform="translate(1 0)"/><path class="cls-7" d="M185.77,203.44l.07-.07a5.38,5.38,0,0,1-.15-1.52.6.6,0,0,0-.19-.08A5.36,5.36,0,0,0,185.77,203.44Zm-.23-.45a3.63,3.63,0,0,0,.13.57,2.81,2.81,0,0,0,1.35,1.85h0a1.5,1.5,0,0,0,.77.12,1.67,1.67,0,0,0,.52-.17,1.78,1.78,0,0,0,.46-.33,2.24,2.24,0,0,0,.34-.4,4,4,0,0,0,.66-1.66c.35-1.84-.31-3.76-1.46-4.28a.65.65,0,0,0-.22-.08,1.28,1.28,0,0,0-.75,0,2.19,2.19,0,0,0-.33.12,2.43,2.43,0,0,0-.35.24l-.17.16a3.82,3.82,0,0,0-.94,2,1.77,1.77,0,0,0,0,.2v0h0c0,.14,0,.28,0,.42A5,5,0,0,0,185.54,203Zm4.09-.51c0,.15,0,.31-.06.46a4,4,0,0,1-.59,1.52,2.08,2.08,0,0,1-.32.39,1.54,1.54,0,0,1-.44.33,1.29,1.29,0,0,1-1.07,0h0a2.7,2.7,0,0,1-1.27-1.85,5.38,5.38,0,0,1-.15-1.52,3.15,3.15,0,0,1,.05-.43,1.87,1.87,0,0,1,0-.25,3.56,3.56,0,0,1,.9-1.91,1.73,1.73,0,0,1,.45-.33,1.28,1.28,0,0,1,.31-.11l.17,0h0a1.24,1.24,0,0,1,.46.06.47.47,0,0,1,.15.06c1,.43,1.55,2,1.4,3.57Z" transform="translate(1 0)"/><g class="cls-21"><path class="cls-2" d="M179.69,200.7c-.18,1.77.7,3.54,1.95,4s2.4-.7,2.58-2.47-.7-3.54-1.95-4S179.86,198.92,179.69,200.7Z" transform="translate(1 0)"/></g><g class="cls-21"><path class="cls-2" d="M185.53,201.27c-.18,1.79.6,3.6,1.72,4s2.18-.63,2.36-2.41-.6-3.59-1.73-4S185.7,199.49,185.53,201.27Z" transform="translate(1 0)"/></g><path class="cls-7" d="M179.59,201.74a4.47,4.47,0,0,0,.49,1.47,3,3,0,0,0,1.48,1.42l.13.05a1.87,1.87,0,0,0,.81.08,1.69,1.69,0,0,0,.44-.12,1.46,1.46,0,0,0,.35-.18,3.26,3.26,0,0,0,1.3-2.46c0-.1,0-.2,0-.3s0-.28,0-.42a4.39,4.39,0,0,0-1.15-2.86,2.35,2.35,0,0,0-1-.65,1.82,1.82,0,0,0-1.6.21,3.12,3.12,0,0,0-1.25,2.15c0,.1,0,.21-.05.31s0,.23,0,.34A4.39,4.39,0,0,0,179.59,201.74Zm4.12,2a2,2,0,0,1-.55.51,1.71,1.71,0,0,1-.23.13,1.69,1.69,0,0,1-1.17.06l-.13-.05a2.71,2.71,0,0,1-1.34-1.28,4.63,4.63,0,0,1-.55-2.3c0-.13,0-.25,0-.37a4.17,4.17,0,0,1,.09-.51,2,2,0,0,1,.09-.33h0a2.81,2.81,0,0,1,.22-.53,2.34,2.34,0,0,1,.8-.92,1.6,1.6,0,0,1,.7-.27,1.71,1.71,0,0,1,.71.07,2.28,2.28,0,0,1,.91.58,4.25,4.25,0,0,1,1.11,2.76c0,.15,0,.29,0,.43a1.93,1.93,0,0,1,0,.24,3.52,3.52,0,0,1-.65,1.77A0,0,0,0,0,183.71,203.77Z" transform="translate(1 0)"/><path class="cls-7" d="M185.85,201.89a.17.17,0,0,1-.14,0h0a1.88,1.88,0,0,0-1.51-.07.22.22,0,0,1-.26-.13.2.2,0,0,1,.13-.26,2.25,2.25,0,0,1,1.86.11.19.19,0,0,1,.06.28A.2.2,0,0,1,185.85,201.89Z" transform="translate(1 0)"/><path class="cls-3" d="M184.38,205.85a3,3,0,0,1-1.25-.31.16.16,0,0,1,.16-.28,2.11,2.11,0,0,0,2,0,.16.16,0,0,1,.23,0,.15.15,0,0,1,0,.22A1.76,1.76,0,0,1,184.38,205.85Z" transform="translate(1 0)"/><path class="cls-3" d="M361.21,316.61l.32,0c.25,0,.43-.43.41-.9l-2.45-59.92-4.67-2.28,5.66,61.92C360.52,316.11,360.84,316.65,361.21,316.61Z" transform="translate(1 0)"/><path class="cls-3" d="M221.43,316.61l-.32,0c-.24,0-.43-.43-.41-.9l2.46-59.92,4.67-2.28-5.66,61.92C222.12,316.11,221.8,316.65,221.43,316.61Z" transform="translate(1 0)"/><ellipse class="cls-17" cx="290.15" cy="256.39" rx="98.6" ry="7.64"/><rect class="cls-17" x="191.55" y="252.87" width="197.2" height="3.52"/><ellipse class="cls-22" cx="290.15" cy="252.87" rx="98.6" ry="7.64"/><path class="cls-10" d="M223.39,244s5.6,1.52,6.62,3.16,1.08,4.49.23,3.61a12.82,12.82,0,0,1-1.63-2.31s1.51,3.12.62,3.15-2.17-2.69-2.17-2.69,1.49,3.86.64,3.62-2-3.18-2-3.18,1.25,3.64.27,3.34-1-3-1.9-3-3.73,1-4.13-1.45Z" transform="translate(1 0)"/><path class="cls-3" d="M202.4,252.74h19.79a1,1,0,0,0,.91-.65l4.11-12.15a.94.94,0,0,0-.91-1.24h-19a2,2,0,0,0-1.91,1.36l-3.87,11.44A1,1,0,0,0,202.4,252.74Z" transform="translate(1 0)"/><path class="cls-3" d="M203.65,252.74h19.78a1,1,0,0,0,.91-.65l4.11-12.15a.94.94,0,0,0-.91-1.24h-19a2,2,0,0,0-1.92,1.36l-3.87,11.44A1,1,0,0,0,203.65,252.74Z" transform="translate(1 0)"/><path class="cls-23" d="M217.51,245.32c0-.46-.54-.65-1-.65a1.35,1.35,0,0,0-1.23,1.16c0,.69.56.79,1,.79A1.56,1.56,0,0,0,217.51,245.32Z" transform="translate(1 0)"/><path class="cls-3" d="M196.37,251h27.07v1.72H195.81a.58.58,0,0,1-.59-.58h0A1.15,1.15,0,0,1,196.37,251Z" transform="translate(1 0)"/><path class="cls-18" d="M205.05,244.84l-.12,0a33,33,0,0,1,1.62-4.79,2.73,2.73,0,0,1,1.47-1.38l0,.12a2.69,2.69,0,0,0-1.39,1.33A34.19,34.19,0,0,0,205.05,244.84Z" transform="translate(1 0)"/><path class="cls-18" d="M202.13,251.09V251c.65,0,.81-.26.81-.27l1.54-4.54.12,0-1.54,4.55S202.86,251.09,202.13,251.09Z" transform="translate(1 0)"/><path class="cls-3" d="M358.26,309.13s-.12,2.6-1.92,3.3-7,1.26-5.09,3c1.09,1,6.33.46,7.8.49s2.84.7,4-.25.13-6.42.13-6.42a5.83,5.83,0,0,1-2.43.57A4.68,4.68,0,0,1,358.26,309.13Z" transform="translate(1 0)"/><path class="cls-3" d="M342.53,311.8s-.14,2.61-1.95,3.29-7,1.18-5.12,2.92c1.08,1,6.32.53,7.79.58s2.84.72,4-.22.2-6.42.2-6.42a5.84,5.84,0,0,1-2.43.55A4.75,4.75,0,0,1,342.53,311.8Z" transform="translate(1 0)"/><path class="cls-7" d="M343.74,314a5.69,5.69,0,0,1-5.07-6c1.19-17.1,2.79-25.71,8.63-32.83a37.19,37.19,0,0,1,15.79-11.29,42,42,0,0,1,16.63-2.74c10.09.27,14.69,2.16,14.69,2.16,6.19,16.15-5.8,17.2-14.57,16.88l-.87,0c-5.32-.13-14.84.4-18.85,5.3-3.18,3.87-5.64,9.49-7.76,24.33a5.35,5.35,0,0,1-5.91,4.53Z" transform="translate(1 0)"/><path class="cls-7" d="M359,311a5.54,5.54,0,0,1-5.14-5.56c1-15.57,2.45-23.4,8.18-29.82,3.69-4.12,9-7,15.66-8.58a63,63,0,0,1,16.53-1.34c10.08.39,14.68-.3,14.68-.3,6.77,26.23-22.74,12.29-31.1,19.29-3.64,3.05-8.33,9.06-10.26,22.56a5.11,5.11,0,0,1-5.84,4.06Z" transform="translate(1 0)"/><path class="cls-3" d="M354.14,300.23l-.11,0a20.41,20.41,0,0,1,4.07-8,23.21,23.21,0,0,1,7.11-5.86,31.65,31.65,0,0,1,12.29-3.48V283c-10.52,1-16.31,5.58-19.32,9.3A20.3,20.3,0,0,0,354.14,300.23Z" transform="translate(1 0)"/><path class="cls-10" d="M389.54,217.62l-1-4.16-.29-1.21-1.66-7.12-.8,6.9-.48,4.15-.15,1.31c-.11.89-.67,1-1.4,1.76-.29.3-2.17,2.08-.26,3.08,2.37,1.25,7.08,0,9-2C392.5,220.29,389.85,219,389.54,217.62Z" transform="translate(1 0)"/><path class="cls-10" d="M380.62,206.5c.85-4.05,4.28-6.76,7.67-6.07s5.46,4.54,4.61,8.58-4.28,6.76-7.67,6.07S379.78,210.54,380.62,206.5Z" transform="translate(1 0)"/><path class="cls-3" d="M383.44,204.9c-3.59-.13-5.17-2.29-5.07-4.19.13-2.42,1.83-4.46,3.56-3.42s1.12-1.24,2.86-1.35c3.26-.2,3.7,2.11,6.33,2.42,3.47.4,7,6.43,3.78,10.4C394.9,208.76,386.27,205,383.44,204.9Z" transform="translate(1 0)"/><path class="cls-3" d="M380.44,202.23s3.54,3.91,2.89,5.92-.59,2.82,1.56,4.08.05,2.88,3,3.23,6.86-2.87,7.28-8.58a8.54,8.54,0,0,0-1.45-5.41Z" transform="translate(1 0)"/><path class="cls-10" d="M381.41,207.92a1.3,1.3,0,0,1,1.8-.28,1.28,1.28,0,0,1,.08,1.81,1.31,1.31,0,0,1-1.81.28A1.27,1.27,0,0,1,381.41,207.92Z" transform="translate(1 0)"/><path class="cls-3" d="M394.15,208a.1.1,0,0,1-.09-.06,2.18,2.18,0,0,0-1.09-1.08.09.09,0,0,1-.05-.12.1.1,0,0,1,.12,0,2.24,2.24,0,0,1,1.19,1.18.09.09,0,0,1-.05.12Z" transform="translate(1 0)"/><path class="cls-3" d="M392.94,206.38a.1.1,0,0,1-.09-.07.1.1,0,0,1,.08-.11s.95-.2,1-1a.08.08,0,0,1,.09-.09.11.11,0,0,1,.09.1c0,.9-1.13,1.13-1.14,1.13Z" transform="translate(1 0)"/><path class="cls-3" d="M382.2,196.82a.69.69,0,0,1-.24,0,2.45,2.45,0,0,1-.74-.46,1.51,1.51,0,0,0-1.54-.39.09.09,0,0,1-.11-.07.09.09,0,0,1,.07-.12,1.71,1.71,0,0,1,1.7.43,2.46,2.46,0,0,0,.68.43.41.41,0,0,0,.39,0c.44-.25.62-1.22.62-1.23a.1.1,0,1,1,.19,0s-.19,1.07-.72,1.37A.61.61,0,0,1,382.2,196.82Z" transform="translate(1 0)"/><path class="cls-3" d="M391.18,197.28a3.86,3.86,0,0,1-2.53-1.18.09.09,0,0,1,0-.13.1.1,0,0,1,.14,0,3.61,3.61,0,0,0,2.6,1.11.09.09,0,0,1,.1.09.09.09,0,0,1-.09.1Z" transform="translate(1 0)"/><path class="cls-3" d="M382.29,210.05A1.08,1.08,0,0,1,382,210a0,0,0,1,1,0-.08s.79.31,1.41-.73c0,0,0,0,.06,0s0,0,0,.06A1.4,1.4,0,0,1,382.29,210.05Z" transform="translate(1 0)"/><path class="cls-4" d="M388.5,218.08c-15.77,0-18.86,10.29-18.86,10.29s5,1.41,5,3c-.06,5.52-3.52,21.11-2.81,30.67,0,0,16.83,27.7,38.88,4.54C410.7,266.61,419.7,218.07,388.5,218.08Z" transform="translate(1 0)"/><polygon class="cls-3" points="395.09 313.65 398.13 313.65 398.13 280.84 396.13 283.02 395.09 313.65"/><path class="cls-3" d="M386.48,315.45s13.64.25,18.18.28c.5,0,.87-.68.87-1.18h0c0-.49-.74-1.08-1.24-1.08-4.45,0-17.81.19-17.81.19a.9.9,0,0,0-.91.89h0A.9.9,0,0,0,386.48,315.45Z" transform="translate(1 0)"/><path class="cls-3" d="M404.87,317.07a2,2,0,0,0-2.05-1.62,1.9,1.9,0,0,0-2.05,1.67,2.32,2.32,0,0,0,2.28,2.12A1.86,1.86,0,0,0,404.87,317.07Z" transform="translate(1 0)"/><path class="cls-3" d="M390.33,317.07a2,2,0,0,0-2.06-1.62,1.9,1.9,0,0,0-2,1.67,2.33,2.33,0,0,0,2.29,2.12A1.87,1.87,0,0,0,390.33,317.07Z" transform="translate(1 0)"/><path class="cls-3" d="M401.68,282.86s.49,2.15-4.55,2.84a7.21,7.21,0,0,1-7.2-2.84Z" transform="translate(1 0)"/><path class="cls-9" d="M389.52,279.53c0-6,.89-30.38,9.56-32,3.4-.62,15.44-2.16,17.06,3,2.76,8.71-4.72,30.32-4.72,30.32a3.78,3.78,0,0,1-3.14,2.55c-2.47.26-32.58,1.12-32.88,0C374.23,279,385.23,280.77,389.52,279.53Z" transform="translate(1 0)"/><path class="cls-3" d="M383.75,231.27c-.14.64-3.41.52-7.3-.28s-6.94-2-6.81-2.62,3.4-.52,7.3.28S383.88,230.63,383.75,231.27Z" transform="translate(1 0)"/><path class="cls-10" d="M346.59,254.55c-1.69-.81.21-6.93.21-6.93,8.36-1.31,21.81-2,23.85-18.43,0-.07,2.17-.53,5.71.15a20.61,20.61,0,0,1,5.84,2.34C375.31,253.69,363.54,254.55,346.59,254.55Z" transform="translate(1 0)"/><g class="cls-24"><path class="cls-13" d="M367.25,248.73a1.12,1.12,0,0,1-1.13-1.51,2.41,2.41,0,0,1,.76-1.2,2.47,2.47,0,0,1,1.28-.62,1.25,1.25,0,0,1,1.13.35,1.23,1.23,0,0,1,.23,1.15,2.48,2.48,0,0,1-.76,1.2A2.4,2.4,0,0,1,367.25,248.73Zm1.14-3-.18,0a2,2,0,0,0-1.08.53,2.07,2.07,0,0,0-.65,1,.87.87,0,0,0,.14.82c.37.41,1.24.28,1.89-.3a2,2,0,0,0,.65-1A.88.88,0,0,0,369,246,.83.83,0,0,0,368.39,245.75Z" transform="translate(1 0)"/></g><path class="cls-10" d="M349,254.55s-.27-6-.72-6.41c-1-.92-3.5-2.3-4.55-3.2-.46-.4-2.08-1.62-2.54-1.22s.44,1.93.92,2.63c-4-.42-9.77.05-1.7,2.21v0c-.85-.07-6.1-.75-6.3.45-.15.91,4.75,1.69,6.14,1.82v0c-1.43,0-5.56-.56-5.63.5s5.64,1.77,5.64,1.77-4.75-.29-4.15.71C337.54,256.27,349,254.55,349,254.55Z" transform="translate(1 0)"/><path class="cls-10" d="M326,246.62l1-7.17c7-1.27,16.2-7.16,18-19.74.33-2.21,9.08-2.94,9.09-2.57C354.82,240.94,335.05,246.9,326,246.62Z" transform="translate(1 0)"/><g class="cls-24"><path class="cls-13" d="M343.24,237.93h0a1.3,1.3,0,0,1-.93-.36,1.81,1.81,0,0,1,.38-2.48,2.23,2.23,0,0,1,1.58-.71,1.32,1.32,0,0,1,.93.36,1.82,1.82,0,0,1-.38,2.48h0A2.31,2.31,0,0,1,343.24,237.93Zm1-3.19a2,2,0,0,0-1.31.6c-.65.64-.82,1.53-.38,2a1,1,0,0,0,.67.26h0a2,2,0,0,0,1.31-.6c.65-.64.82-1.53.37-2a.92.92,0,0,0-.66-.26Z" transform="translate(1 0)"/></g><path class="cls-10" d="M327,239.45s-6.49-2-8.55-1.08-4,3.74-2.55,3.41a15.26,15.26,0,0,0,3.08-1.24s-3.49,2.12-2.64,2.71S320.2,242,320.2,242s-4,2.84-3,3.15,4-1.88,4-1.88-3.58,2.79-2.42,3.12,2.94-2.33,3.79-1.74,3,3.33,5,1.18Z" transform="translate(1 0)"/><path class="cls-13" d="M319,240.6l-.11-.12s.95-.78,1.67-.58l-.05.16C319.89,239.88,319,240.6,319,240.6Z" transform="translate(1 0)"/><path class="cls-13" d="M320.26,242l-.12-.13a3,3,0,0,1,2-.68l0,.16A2.81,2.81,0,0,0,320.26,242Z" transform="translate(1 0)"/><path class="cls-13" d="M321.27,243.31l-.11-.13s1.12-.92,1.87-.64l-.06.16C322.31,242.45,321.28,243.3,321.27,243.31Z" transform="translate(1 0)"/><path class="cls-3" d="M317.77,248.7H296.94a1,1,0,0,1-1-.69l-4.33-12.79a1,1,0,0,1,1-1.31h20a2.13,2.13,0,0,1,2,1.43l4.08,12A1,1,0,0,1,317.77,248.7Z" transform="translate(1 0)"/><path class="cls-3" d="M316.46,248.7H295.63a1,1,0,0,1-1-.69l-4.33-12.79a1,1,0,0,1,1-1.31h20a2.11,2.11,0,0,1,2,1.43l4.08,12A1,1,0,0,1,316.46,248.7Z" transform="translate(1 0)"/><path class="cls-23" d="M301.87,240.89c0-.49.56-.69,1.06-.69a1.41,1.41,0,0,1,1.29,1.22c0,.73-.58.83-1.08.83A1.63,1.63,0,0,1,301.87,240.89Z" transform="translate(1 0)"/><path class="cls-3" d="M324.12,246.89h-28.5v1.81h29.09a.62.62,0,0,0,.62-.61h0A1.2,1.2,0,0,0,324.12,246.89Z" transform="translate(1 0)"/><path class="cls-18" d="M315,240.38a35.86,35.86,0,0,0-1.69-5,2.76,2.76,0,0,0-1.47-1.39l0-.13a2.92,2.92,0,0,1,1.54,1.46,34.61,34.61,0,0,1,1.71,5Z" transform="translate(1 0)"/><path class="cls-18" d="M318.06,247c-.77,0-1-.33-1-.35l-1.63-4.81.13,0,1.62,4.8h0s.18.27.85.27Z" transform="translate(1 0)"/><polygon class="cls-18" points="253.39 247.73 267.35 247.59 275.29 254.2 258.4 254.63 253.39 247.73"/></svg>