<svg id="Layer_1" data-name="Layer 1" xmlns="http://www.w3.org/2000/svg" viewBox="0 0 1279.61 796.71"><defs><style>.cls-1{fill:#b9efd4;}.cls-2{opacity:0.6;}.cls-3{fill:#fff;}.cls-4{opacity:0.4;}.cls-5{fill:#6aa319;}.cls-6{fill:#abe291;}.cls-7{fill:#83bb26;}.cls-8{fill:#561c17;}.cls-9{fill:#008059;}.cls-10{fill:#ffc655;}.cls-11{fill:#b8e34d;}.cls-12{fill:#8a4d27;}.cls-13{fill:#f4f4f4;}.cls-14{fill:#daebe8;}.cls-15{fill:#ffa076;}.cls-16{fill:#00784d;}.cls-17{opacity:0.3;}.cls-18{fill:#f47c53;}.cls-19{fill:#366f90;}.cls-20{fill:#020202;}.cls-21{fill:#e1986c;}.cls-22{fill:#080435;}.cls-23{fill:#e9633e;}.cls-24{opacity:0.5;}</style></defs><rect class="cls-1" width="1279.61" height="796.71"/><g class="cls-2"><path class="cls-3" d="M1019.82,77.17s-16-30.65-56.54-26.81-35.7,34.57-55,31.69-46.32,0-52.1,19.2-31.84,8.65-32.81,25,29.91,27.85,65.61,13.44,53.06,11.19,103.24,6.56,56.38-10.4,86.08-7.52,29-17.35,15.48-30.8S1025.61,95.74,1019.82,77.17Z" transform="translate(-0.39)"/></g><g class="cls-4"><path class="cls-3" d="M803.8,17.26S793.62-2.23,767.86.21s-22.7,22-35,20.15-29.45,0-33.13,12.21-20.24,5.49-20.85,15.87,19,17.71,41.71,8.55,33.74,7.11,65.63,4.17,35.85-6.61,54.73-4.78,18.43-11,9.84-19.58S807.48,29.06,803.8,17.26Z" transform="translate(-0.39)"/></g><g class="cls-2"><path class="cls-3" d="M396.51,75.68s-20.06-34.58-56.76-28.9-.82,21.28-48.94,28.9-58.72,23.87-36.7,36.86S312,89,351.16,106.85,442.67,109.46,396.51,75.68Z" transform="translate(-0.39)"/></g><path class="cls-5" d="M1039.91,763.38l-792.26-9A30.9,30.9,0,0,1,217,723.52V242.25a30.88,30.88,0,0,1,30.49-30.81l782-11.92A30.9,30.9,0,0,1,1061,229.71L1071.22,732A30.89,30.89,0,0,1,1039.91,763.38Z" transform="translate(-0.39)"/><rect class="cls-6" x="248.11" y="247.99" width="781.93" height="419.94" rx="16.57"/><polygon class="cls-7" points="235.56 693.64 11.04 763.4 1268.61 765.22 1070.05 693.64 235.56 693.64"/><path class="cls-5" d="M.39,773.7v12.71c0,5.69,4.93,10.3,11,10.3H1258.26c11.56,0,21.09-8.48,21.65-19.28L1280,776c.3-5.87-4.7-10.79-11-10.8L11.42,763.4C5.33,763.39.39,768,.39,773.7Z" transform="translate(-0.39)"/><ellipse class="cls-8" cx="624.29" cy="227.23" rx="9.08" ry="9.04"/><rect class="cls-9" x="287.17" y="284.95" width="508.24" height="346.32" rx="22.39"/><rect class="cls-9" x="821.71" y="284.95" width="171.99" height="346.32" rx="13.02"/><rect class="cls-10" x="311.38" y="308.75" width="171.58" height="9.33"/><rect class="cls-11" x="311.38" y="383.51" width="186.08" height="9.33"/><rect class="cls-10" x="311.38" y="466.32" width="126.7" height="9.33"/><rect class="cls-11" x="449.81" y="466.32" width="126.7" height="9.33"/><rect class="cls-12" x="336.94" y="555.98" width="186.08" height="9.33"/><rect class="cls-13" x="397.73" y="578.69" width="186.08" height="9.33"/><rect class="cls-13" x="388.16" y="488.91" width="123.3" height="9.33"/><rect class="cls-13" x="524.73" y="488.91" width="81.92" height="9.33"/><rect class="cls-13" x="444.56" y="508.48" width="105.81" height="9.33"/><rect class="cls-13" x="391.77" y="409.29" width="90.04" height="9.33"/><rect class="cls-11" x="426.36" y="428.9" width="151.29" height="9.33"/><rect class="cls-13" x="495.97" y="409.29" width="71.64" height="9.33"/><rect class="cls-12" x="847.61" y="308.75" width="66.36" height="4.66"/><rect class="cls-13" x="847.61" y="336.73" width="42.83" height="4.66"/><rect class="cls-13" x="897.72" y="336.73" width="49.99" height="4.66"/><rect class="cls-13" x="927.62" y="308.75" width="40.19" height="4.66"/><rect class="cls-13" x="847.61" y="322.74" width="95.61" height="4.66"/><rect class="cls-10" x="847.61" y="371.85" width="66.36" height="4.66"/><rect class="cls-13" x="847.61" y="399.83" width="42.83" height="4.66"/><rect class="cls-13" x="897.72" y="399.83" width="49.99" height="4.66"/><rect class="cls-13" x="927.62" y="371.85" width="40.19" height="4.66"/><rect class="cls-13" x="847.61" y="385.84" width="95.61" height="4.66"/><rect class="cls-11" x="847.61" y="434.95" width="66.36" height="4.66"/><rect class="cls-13" x="847.61" y="462.93" width="42.83" height="4.66"/><rect class="cls-13" x="897.72" y="462.93" width="49.99" height="4.66"/><rect class="cls-13" x="927.62" y="434.95" width="40.19" height="4.66"/><rect class="cls-13" x="847.61" y="448.94" width="95.61" height="4.66"/><rect class="cls-10" x="847.61" y="496.82" width="66.36" height="4.66"/><rect class="cls-13" x="847.61" y="524.81" width="42.83" height="4.66"/><rect class="cls-13" x="897.72" y="524.81" width="49.99" height="4.66"/><rect class="cls-13" x="927.62" y="496.82" width="40.19" height="4.66"/><rect class="cls-13" x="847.61" y="510.82" width="95.61" height="4.66"/><rect class="cls-13" x="847.61" y="552.97" width="66.36" height="4.66"/><rect class="cls-13" x="847.61" y="580.95" width="42.83" height="4.66"/><rect class="cls-13" x="897.72" y="580.95" width="49.99" height="4.66"/><rect class="cls-13" x="927.62" y="552.97" width="40.19" height="4.66"/><rect class="cls-13" x="847.61" y="566.96" width="95.61" height="4.66"/><rect class="cls-10" x="580.62" y="409.29" width="72.62" height="9.33"/><rect class="cls-14" x="380.89" y="338.11" width="186.08" height="9.33"/><rect class="cls-11" x="583.81" y="338.11" width="128.43" height="9.33"/><rect class="cls-14" x="633.37" y="308.75" width="107.25" height="9.33"/><path class="cls-8" d="M518.29,296.52s-1.85,12-6.77,18.14c-3.25,4-12.21,12-5.84,14.7,5.09,2.13,14.88-7.35,18.06-9.71s8-6.81,6.91-10.62c-2.2-7.87-1.47-17.77-1.47-17.77Z" transform="translate(-0.39)"/><path class="cls-8" d="M542.89,287.2s2.46,11.9,0,19.35c-1.63,4.91-7.24,15.51-.33,15.8,5.51.24,11.38-12,13.54-15.35s5.1-9.15,2.77-12.34c-4.82-6.63-7.59-16.16-7.59-16.16Z" transform="translate(-0.39)"/><path class="cls-10" d="M539.43,295.61c-66-43.83-62.76-82.24-53.61-97.25,10.63-17.45,27.45-31.24,53.24-37.39A142.34,142.34,0,0,1,558,157.84a13.18,13.18,0,0,1,14.52,13.42l-.59,22.36h0c-11-.22-44.44,3.12-53.19,20.84-1.82,3.69,42.62,55.65,41,65C557.83,290,545.89,299.9,539.43,295.61Z" transform="translate(-0.39)"/><path class="cls-10" d="M513.83,302.18a13.12,13.12,0,0,1-13.2-13.86c1-16.77,4.13-45.32,13.94-66.88,5.57-12.24,14.42-23.36,26.3-33.06A147.11,147.11,0,0,1,572.75,169c20.28-9.28,34.89-8,34.89-8l11.08,16.27c-.15,0,3.11,16.4-20.32,31-12.93,8-38.92,13-49.61,33.8-7.63,14.87-10.54,34.58-11.51,48.35a12.66,12.66,0,0,1-12.6,11.73Z" transform="translate(-0.39)"/><path class="cls-15" d="M528.91,103.31s-13.62,20.85-18.49,51.77c-3.23,20.45,34.17-3.36,34.17-3.36L546.25,109Z" transform="translate(-0.39)"/><path class="cls-16" d="M597,91.52s-10.37-17.64-34.28-12.23-33.66,29.73-35.37,88.1c0,0,14.36,25.29,79.68,20.36,7.24-.55,17.61-1.5,14.08-13.18C614.52,152.86,608.15,109.55,597,91.52Z" transform="translate(-0.39)"/><path class="cls-16" d="M623.29,96.68l-24.59,4.6s-43,12.66-55.05,12.76-17-8.67-17-8.67a63.61,63.61,0,0,1,30.06-24.14,60.62,60.62,0,0,1,6-1.94,44.67,44.67,0,0,1,10.69-1.78C614,77.05,623.29,96.68,623.29,96.68Z" transform="translate(-0.39)"/><path class="cls-8" d="M623.29,96.68c.54,1.93-4.62,5.15-11.51,7.19s-12.91,2.13-13.44.2,4.62-5.15,11.51-7.19S622.76,94.75,623.29,96.68Z" transform="translate(-0.39)"/><path class="cls-15" d="M619.05,151c-10.51,16.38-31.32,26.84-53.18,26.15l2.33-17.46c16.95-3.07,29.95-14.06,32.37-23.31,3-11.64,2-23,.55-31.48a2.2,2.2,0,0,1,.83-2.12c2.17-1.66,7.79-5,17.82-5.21A1.93,1.93,0,0,1,621.69,99C625.89,114.79,628.42,136.42,619.05,151Z" transform="translate(-0.39)"/><g class="cls-17"><path class="cls-18" d="M608,156.41a2.83,2.83,0,0,1-1.11-.23c-1.84-.78-2.48-3.42-1.44-5.88a5.57,5.57,0,0,1,2.86-3,3.08,3.08,0,0,1,2.38,0c1.83.79,2.48,3.42,1.44,5.89h0a5.58,5.58,0,0,1-2.87,3A3.38,3.38,0,0,1,608,156.41Zm1.58-8.58a2.58,2.58,0,0,0-1,.2,4.78,4.78,0,0,0-2.43,2.58c-.87,2.06-.41,4.23,1,4.84a2.27,2.27,0,0,0,1.75,0,4.76,4.76,0,0,0,2.42-2.59h0c.88-2,.42-4.22-1-4.83A2.14,2.14,0,0,0,609.56,147.83Z" transform="translate(-0.39)"/></g><path class="cls-15" d="M568.2,159.73s-15.71-5-20.7-2.62-9.58,9.11-6.18,8.31a36.05,36.05,0,0,0,7.47-3s-8.46,5.16-6.39,6.61,9.38-3.11,9.38-3.11-9.57,6.93-7.18,7.67,9.64-4.58,9.64-4.58-8.65,6.81-5.84,7.6,7.11-5.67,9.18-4.22,7.35,8.09,12.09,2.86Z" transform="translate(-0.39)"/><path class="cls-18" d="M548.92,162.55l-.26-.31c.1-.08,2.29-1.89,4-1.4l-.11.39C551.05,160.8,549,162.53,548.92,162.55Z" transform="translate(-0.39)"/><path class="cls-18" d="M551.92,166l-.27-.3a7.19,7.19,0,0,1,4.75-1.67l0,.4A6.91,6.91,0,0,0,551.92,166Z" transform="translate(-0.39)"/><path class="cls-18" d="M554.37,169.14l-.26-.31c.11-.1,2.7-2.24,4.52-1.56l-.14.38C556.89,167.05,554.4,169.12,554.37,169.14Z" transform="translate(-0.39)"/><path class="cls-8" d="M548.9,184.05H498.49a2.46,2.46,0,0,1-2.33-1.66l-10.47-31.14a2.42,2.42,0,0,1,2.32-3.18H536.5a5.1,5.1,0,0,1,4.86,3.47l9.87,29.33A2.42,2.42,0,0,1,548.9,184.05Z" transform="translate(-0.39)"/><path class="cls-8" d="M545.74,184.05H495.33a2.45,2.45,0,0,1-2.33-1.66l-10.48-31.14a2.43,2.43,0,0,1,2.33-3.18h48.48a5.12,5.12,0,0,1,4.87,3.47l9.87,29.33A2.43,2.43,0,0,1,545.74,184.05Z" transform="translate(-0.39)"/><path class="cls-14" d="M510.42,165c0-1.18,1.37-1.66,2.56-1.66s3.15,1.29,3.14,3-1.42,2-2.61,2A4,4,0,0,1,510.42,165Z" transform="translate(-0.39)"/><path class="cls-8" d="M564.28,179.65h-69v4.4h70.42a1.49,1.49,0,0,0,1.49-1.48h0A2.93,2.93,0,0,0,564.28,179.65Z" transform="translate(-0.39)"/><path class="cls-19" d="M542.16,163.81c0-.09-2.5-9.32-4.1-12.19a6.89,6.89,0,0,0-3.55-3.4l.09-.31c.08,0,2.1.6,3.74,3.55s4,11.89,4.13,12.27Z" transform="translate(-0.39)"/><path class="cls-19" d="M549.61,179.81c-1.87,0-2.34-.82-2.36-.85l-3.94-11.71.31-.1,3.93,11.68h0s.43.66,2.06.66Z" transform="translate(-0.39)"/><path class="cls-20" d="M503.14,265.19l-.41,0A184.11,184.11,0,0,1,508.46,233c4.3-15.69,12.66-36.3,28-45.45l.21.34c-15.24,9.09-23.55,29.6-27.84,45.21A183.34,183.34,0,0,0,503.14,265.19Z" transform="translate(-0.39)"/><path class="cls-20" d="M536.79,293.7h-.4a118.76,118.76,0,0,1,7.91-41.56l.38.16A118.21,118.21,0,0,0,536.79,293.7Z" transform="translate(-0.39)"/><path class="cls-8" d="M552.67,80.47s5.59-2.86,6.19-6.17,2.86-2.52,4-3.46-3.16-9.37-3.16-9.37l-12.44-3.24L550,73.47Z" transform="translate(-0.39)"/><path class="cls-15" d="M577.81,77.54a7.17,7.17,0,0,1-6.23-3.69l-3.91-7.11-1.14-2.07-6.68-12.13,2.2,13,1.32,7.81.38,2.23a3.61,3.61,0,0,1-2.61,4.06h0c-.83,1.67-1.87,5,2.27,5.9,4.87,1,12.15-3.37,14.47-8Z" transform="translate(-0.39)"/><path class="cls-21" d="M567.66,66.52c0,.07,0,.14,0,.22.08,4.25-4.27,6.65-4.27,6.65l0,0-1.32-7.81c1.34-.64,3.27-1.35,4.48-.89A1.87,1.87,0,0,1,567.66,66.52Z" transform="translate(-0.39)"/><ellipse class="cls-15" cx="559.46" cy="54.69" rx="12.43" ry="15.26" transform="matrix(1, -0.1, 0.1, 1, -3.05, 54.2)"/><path class="cls-3" d="M553.73,65.15A27.17,27.17,0,0,0,562.05,63a4.12,4.12,0,0,1-3.81,4.82C555.6,68.21,553.73,65.15,553.73,65.15Z" transform="translate(-0.39)"/><path class="cls-22" d="M558.27,55a.28.28,0,0,1-.2-.15.28.28,0,0,1,.12-.38,3.07,3.07,0,0,1,3.72.47.28.28,0,0,1,0,.4.31.31,0,0,1-.4,0,4.92,4.92,0,0,0-3.09-.39A.29.29,0,0,1,558.27,55Z" transform="translate(-0.39)"/><path class="cls-22" d="M561.38,57.62c.08.67-.24,1.26-.73,1.32s-.95-.43-1-1.1a1.08,1.08,0,0,1,.72-1.31C560.83,56.46,561.29,57,561.38,57.62Z" transform="translate(-0.39)"/><path class="cls-22" d="M553.42,58.9c.12.66-.16,1.27-.64,1.36s-1-.36-1.11-1,.16-1.27.64-1.36S553.29,58.24,553.42,58.9Z" transform="translate(-0.39)"/><path class="cls-8" d="M564.54,44.4A21.67,21.67,0,0,0,550,66.32c0,.57.08,1.14.14,1.74,0,0,6.53.81,7.47,7,.29,1.94-5.08,5.82-5.49,5.68-3.1-1-11.57-7.53-11.17-22s5-25.55,18.16-27.23,12.26,7.25,12.26,7.25A12.46,12.46,0,0,1,564.54,44.4Z" transform="translate(-0.39)"/><path class="cls-8" d="M562.68,44.6s.24.12.63.36c1.5.95,5.26,3.72,6.31,8.28,1.32,5.74-4,9.89-2,14.24s5.57-1.08,9-.62,5.65-1.31,5.25-7.91-3.41-21.81-11.24-21.08Z" transform="translate(-0.39)"/><path class="cls-15" d="M571.82,55.84c-1.28,1.46-3.22,1.78-4.35.72s-1-3.12.27-4.59,3.22-1.78,4.35-.72S573.09,54.38,571.82,55.84Z" transform="translate(-0.39)"/><path class="cls-3" d="M547.51,73.94a.14.14,0,0,1-.14-.12c-1.82-9.42.74-19,4.08-24.24a17,17,0,0,1,7.86-7,9.4,9.4,0,0,1,3.93-.79.14.14,0,0,1,.14.16.15.15,0,0,1-.16.13c-.06,0-6.39-.39-11.51,7.7-3.32,5.23-5.85,14.68-4.05,24a.15.15,0,0,1-.12.17Z" transform="translate(-0.39)"/><path class="cls-3" d="M576.2,61.77h-.05a.15.15,0,0,1-.09-.19c2.35-6.4-.15-16.86-2.9-19.79s-6.28-.91-6.43-.82a.15.15,0,0,1-.14-.26s3.93-2.15,6.78.88,5.35,13.6,3,20.09A.15.15,0,0,1,576.2,61.77Z" transform="translate(-0.39)"/><path class="cls-3" d="M545.56,62.29a.15.15,0,0,1-.15-.14,61.1,61.1,0,0,1,.53-9.46c.93-6.63,2.88-10.78,5.79-12.36a13.66,13.66,0,0,1,9-1.57A11.69,11.69,0,0,1,564.45,40a.16.16,0,0,1,0,.21.15.15,0,0,1-.2,0,13,13,0,0,0-12.43.3c-6.74,3.66-6.16,21.37-6.16,21.55a.14.14,0,0,1-.14.15Z" transform="translate(-0.39)"/><path class="cls-8" d="M1132.44,736.46s-.18,7.29-5.13,9.34-19.3,3.91-13.94,8.59c3.08,2.68,17.57,1,21.66,1s7.94,1.77,11-1c3.34-3,0-17.93,0-17.93a16.43,16.43,0,0,1-6.71,1.75C1134.73,738.09,1132.44,736.46,1132.44,736.46Z" transform="translate(-0.39)"/><path class="cls-8" d="M1189.29,736.46s-.18,7.28-5.13,9.34-19.29,3.91-13.94,8.59c3.08,2.68,17.57,1,21.67,1s7.93,1.77,11-1c3.35-3,0-17.93,0-17.93a16.43,16.43,0,0,1-6.71,1.75C1191.58,738.09,1189.29,736.46,1189.29,736.46Z" transform="translate(-0.39)"/><path class="cls-16" d="M1095.65,536.85s-.92,30.48,8.86,88.95c7,42.21,15.38,84.75,19.47,105.14a16,16,0,0,0,14.93,12.92l3.93.15a13.37,13.37,0,0,0,13.73-14.46l-9.92-138-2.44-45.41Z" transform="translate(-0.39)"/><path class="cls-8" d="M1185.06,563.67c-.45,3.71-21.53,3.26-47.33,0s-45.89-8.81-45.44-12.52,21.27-4.16,47.07-.91S1185.51,560,1185.06,563.67Z" transform="translate(-0.39)"/><path class="cls-16" d="M1125.27,558.62l55.09,176.14a17.76,17.76,0,0,0,16.58,12.55l3.31.06a12.53,12.53,0,0,0,12.37-14.89L1182.48,567a5.49,5.49,0,0,0-3.8-4.08C1168.34,559.93,1124.26,551.34,1125.27,558.62Z" transform="translate(-0.39)"/><path class="cls-7" d="M1176.44,462.27s-7.33-20.53-33.44-19.6-45.83,35.09-50.71,108.49c0,0,42.76-9.33,92.84,12.44C1185.13,563.6,1187.91,492.18,1176.44,462.27Z" transform="translate(-0.39)"/><path class="cls-7" d="M1194.78,461l-18.5,11.78s-47.55,4.74-60.17,2.46-14.59-11.52-14.59-11.52a58.66,58.66,0,0,1,34.86-20.46,63,63,0,0,1,6.62-.62,65.4,65.4,0,0,1,11.55.26C1177.13,445.35,1194.78,461,1194.78,461Z" transform="translate(-0.39)"/><path class="cls-20" d="M1149.89,637.35l-11.84-35.85a34,34,0,0,0-15.43-18.94l.46-.8a34.93,34.93,0,0,1,15.85,19.45l11.85,35.85Z" transform="translate(-0.39)"/><path class="cls-8" d="M1125.09,438.1c-.14,0-3.51-.85-4.51-3.25a4.69,4.69,0,0,1,.71-4.35l1.24-2c2.61-4.15,3.49-5.55,2.81-8.8l.3-.06c.71,3.37-.26,4.91-2.85,9-.38.59-.79,1.25-1.24,2a4.42,4.42,0,0,0-.69,4.07c.94,2.26,4.27,3.07,4.3,3.08Z" transform="translate(-0.39)"/><path class="cls-8" d="M1125.49,419.7a15.27,15.27,0,0,1-2.31,10.67c-3.47,5.46.3,9.44,5,7.34s6.49,3.87,12.5.57S1125.49,419.7,1125.49,419.7Z" transform="translate(-0.39)"/><path class="cls-15" d="M1153.26,442.75a7.24,7.24,0,0,1-5.89-4.29l-3.23-7.48-.94-2.17-5.52-12.76,1,13.23.58,7.94.16,2.26a3.61,3.61,0,0,1-3,3.81h0c-1,1.59-2.34,4.83,1.71,6.11,4.77,1.51,12.47-2.22,15.24-6.65Z" transform="translate(-0.39)"/><path class="cls-8" d="M1144.15,430.76c0,.08,0,.15,0,.22-.32,4.27-4.9,6.26-4.9,6.26l0,0-.58-7.94c1.41-.51,3.4-1,4.57-.47A1.86,1.86,0,0,1,1144.15,430.76Z" transform="translate(-0.39)"/><ellipse class="cls-15" cx="1136.69" cy="418.16" rx="12.49" ry="15.33"/><path class="cls-15" d="M1147.89,420.48c-1.41,1.34-3.39,1.48-4.42.3s-.71-3.21.71-4.56,3.39-1.48,4.42-.3S1149.31,419.13,1147.89,420.48Z" transform="translate(-0.39)"/><path class="cls-23" d="M1130.35,428.09a27.37,27.37,0,0,0,8.53-1.4,4.14,4.14,0,0,1-4.26,4.47C1131.93,431.32,1130.35,428.09,1130.35,428.09Z" transform="translate(-0.39)"/><path class="cls-3" d="M1130.35,428.09a5.6,5.6,0,0,0,3.44.84c2.41,0,5.09-2.24,5.09-2.24A40.94,40.94,0,0,1,1130.35,428.09Z" transform="translate(-0.39)"/><path class="cls-22" d="M1135.87,418.31a.25.25,0,0,1-.19-.17.27.27,0,0,1,.15-.36,3.07,3.07,0,0,1,3.68.81.27.27,0,0,1,0,.4.3.3,0,0,1-.4,0,4.87,4.87,0,0,0-3-.68A.28.28,0,0,1,1135.87,418.31Z" transform="translate(-0.39)"/><path class="cls-22" d="M1138.11,421.42c0,.67-.36,1.23-.85,1.25s-.9-.52-.93-1.2.36-1.23.85-1.24S1138.09,420.74,1138.11,421.42Z" transform="translate(-0.39)"/><path class="cls-22" d="M1125.73,419.79a.27.27,0,0,1-.24-.09.28.28,0,0,1,0-.4,3.11,3.11,0,0,1,3.72-.64.29.29,0,0,1,.14.38.32.32,0,0,1-.38.14,4.84,4.84,0,0,0-3.08.53A.35.35,0,0,1,1125.73,419.79Z" transform="translate(-0.39)"/><path class="cls-22" d="M1129,421.81a1.09,1.09,0,0,1-.3,1.47c-.45.2-1-.13-1.32-.75a1.08,1.08,0,0,1,.31-1.47C1128.13,420.85,1128.72,421.19,1129,421.81Z" transform="translate(-0.39)"/><path class="cls-8" d="M1131.77,405.61s.27,5.32,7,6.23,11.28,3.71,10.38,8.5-11.66,14.72-3.75,18.56,6.23-3.32,14.8-1.66,10.12-9.73,4.22-16.34-3.52-24.12-25.65-23.34-14,18.35-14,18.35S1131.79,411.48,1131.77,405.61Z" transform="translate(-0.39)"/><path class="cls-3" d="M1147.63,439.89a4.65,4.65,0,0,1-3.05-3c-1-3.56,3.21-8.95,6.89-13.71,1-1.25,1.89-2.43,2.7-3.56,2.26-3.13,2.45-6.72.52-9.6-2.11-3.15-6.14-4.48-10.51-3.48s-7.36.1-9.1-.84a8.28,8.28,0,0,1-2.79-2.31l.15-.1c0,.05,3.48,5,11.69,3.08,4.45-1,8.55.34,10.71,3.55a8.45,8.45,0,0,1-.52,9.8c-.81,1.13-1.73,2.32-2.7,3.57-3.66,4.72-7.81,10.08-6.86,13.56a4.37,4.37,0,0,0,2.93,2.84Z" transform="translate(-0.39)"/><path class="cls-9" d="M1125.26,429.59c-1.87-.68-3.52-2.75-4.41-5.51-1.44-4.51-.43-9.52,2.26-11.18a3.59,3.59,0,0,1,3.25-.31c1.87.68,3.52,2.74,4.4,5.5h0c1.45,4.5.43,9.52-2.25,11.18a3.53,3.53,0,0,1-1.91.56A4,4,0,0,1,1125.26,429.59Zm5-11.32c-.83-2.61-2.35-4.53-4.07-5.17a3.12,3.12,0,0,0-2.76.27c-2.48,1.53-3.38,6.27-2,10.54.84,2.6,2.36,4.53,4.08,5.17a3.13,3.13,0,0,0,2.75-.27c2.49-1.54,3.39-6.27,2-10.54Z" transform="translate(-0.39)"/><g class="cls-17"><path class="cls-3" d="M1145.21,415.17c1,4.37-.6,9.08-3.58,10.5s-6.2-1-7.2-5.36.6-9.08,3.58-10.5S1144.21,410.79,1145.21,415.17Z" transform="translate(-0.39)"/></g><g class="cls-17"><path class="cls-3" d="M1130.88,418.46c1,4.4-.33,9.17-3,10.65s-5.62-.87-6.63-5.27.33-9.17,3-10.65S1129.88,414.06,1130.88,418.46Z" transform="translate(-0.39)"/></g><path class="cls-9" d="M1137.48,425.73a8.22,8.22,0,0,1-4-5.75c-1.09-4.68.69-9.73,4-11.26a4.58,4.58,0,0,1,4,0,8.19,8.19,0,0,1,4,5.74h0c1.1,4.68-.68,9.73-4,11.26a4.59,4.59,0,0,1-2,.46A4.73,4.73,0,0,1,1137.48,425.73Zm.18-16.52c-3.05,1.43-4.69,6.2-3.66,10.64a7.79,7.79,0,0,0,3.72,5.38,4.17,4.17,0,0,0,3.57,0c3-1.43,4.7-6.2,3.66-10.63h0a7.79,7.79,0,0,0-3.71-5.38,4.3,4.3,0,0,0-1.83-.43A4.21,4.21,0,0,0,1137.66,409.21Z" transform="translate(-0.39)"/><path class="cls-9" d="M1130.29,420.1a.5.5,0,0,0,.33-.12h0a4.71,4.71,0,0,1,3.73-.66.54.54,0,0,0,.61-.4.51.51,0,0,0-.41-.6,5.59,5.59,0,0,0-4.59.86.51.51,0,0,0-.06.73A.52.52,0,0,0,1130.29,420.1Z" transform="translate(-0.39)"/><path class="cls-8" d="M1195,461.44c.64,1.85-4.19,5.32-10.8,7.75s-12.49,2.89-13.13,1,4.19-5.32,10.8-7.75S1194.4,459.58,1195,461.44Z" transform="translate(-0.39)"/><path class="cls-15" d="M1144,521.28l5.45-9.17c0-1.84-3.06-5.23-1.31-4.65,6.82,2.25,20.47-2.42,24.07-7.48,5-7,4.46-17.93,3.07-25.5-.71-3.87.57-6.46,5.27-8.94a32.37,32.37,0,0,1,9-3.06c2-.33,4,.46,4.49,2.41a81.39,81.39,0,0,1,2.35,13.39c1.18,13.26-1.39,24.81-7.43,33.37-7.43,10.52-21.26,17.25-43,15.35C1144,526.83,1144,523.26,1144,521.28Z" transform="translate(-0.39)"/><g class="cls-24"><path class="cls-18" d="M1184.12,508.14a2.74,2.74,0,0,1-1.72-.57c-1.47-1.18-1.31-3.82.36-5.89s4.22-2.78,5.7-1.6a3,3,0,0,1,1,2.7,6,6,0,0,1-1.36,3.19h0A5.4,5.4,0,0,1,1184.12,508.14Zm2.61-7.73a4.57,4.57,0,0,0-3.27,1.84c-1.33,1.65-1.56,3.76-.49,4.61s3.09.19,4.43-1.46h0a5.07,5.07,0,0,0,1.16-2.7,2.14,2.14,0,0,0-.67-1.92A1.85,1.85,0,0,0,1186.73,500.41Z" transform="translate(-0.39)"/></g><path class="cls-16" d="M1164.31,559.65s-51.5-9.79-68.2-5.17l8,11.81,29.77,1.68Z" transform="translate(-0.39)"/><path class="cls-9" d="M1137.4,536.85h-43.89a4,4,0,0,1-3.94-3.14l-13.08-58.51a3.85,3.85,0,0,1,3.78-4.69h41.88a4.57,4.57,0,0,1,4.45,3.55l13.33,59.65A2.58,2.58,0,0,1,1137.4,536.85Z" transform="translate(-0.39)"/><path class="cls-15" d="M1149.73,509s-11.21-11.38-17.35-11.48-14.06,4.38-10.27,5.25a40.34,40.34,0,0,0,8.94.64s-11,1-9.64,3.45,10.9,1.51,10.9,1.51-13,2.21-11,4.12,11.88.16,11.88.16-12,2.54-9.59,4.71,9.9-2.17,11.24.29,7.53,11.76,14.85,8.87Z" transform="translate(-0.39)"/><path class="cls-18" d="M1135.41,504.11c-1.32-1.19-4.27-.49-4.3-.49l-.11-.44c.13,0,3.22-.76,4.71.59Z" transform="translate(-0.39)"/><path class="cls-18" d="M1137.57,509.19a7.72,7.72,0,0,0-5.21-.62l-.11-.43a8,8,0,0,1,5.55.66Z" transform="translate(-0.39)"/><path class="cls-18" d="M1138.12,513.39c-1.3-1.38-4.8-.54-4.84-.53l-.11-.44c.16,0,3.8-.9,5.28.67Z" transform="translate(-0.39)"/><path class="cls-15" d="M1076.76,500.29s-.61,5.29,4.25,5.81c6.18.66,20.06-6,4.13-6.33-.39,0,10.17-.75,8.91-3.29s-10.38-1.38-10.38-1.38,11.1-1.69,9.13-3.71-9.16-1.75-9.16-1.75,9.39-1,7-3.27-8.46.06-11.28.47-3.28,2.22-2.72,4.75c0,0-.92,2.84-.14,4.4.3.6-.21,1.31-.19,1.78A16.68,16.68,0,0,0,1076.76,500.29Z" transform="translate(-0.39)"/><path class="cls-10" d="M1110.32,472.17a28.76,28.76,0,0,0-2.12-4.15c-.48-.39-20.26-.26-20.13.65s.91,3.63,2.73,4.14S1111.07,473.82,1110.32,472.17Z" transform="translate(-0.39)"/><path class="cls-8" d="M1109.65,747.12H187.7a5.19,5.19,0,0,1-1.82-10l89.58-34.38a27.54,27.54,0,0,1,9.87-1.83h736.94a23.74,23.74,0,0,1,9.57,2l79.71,35a4.84,4.84,0,0,1-1.9,9.26ZM285.33,701.69a26.7,26.7,0,0,0-9.57,1.77l-89.59,34.39a4.28,4.28,0,0,0-2.71,4.9,4.2,4.2,0,0,0,4.24,3.56h922a3.87,3.87,0,0,0,3.88-3.17,3.93,3.93,0,0,0-2.3-4.54l-79.72-35a22.83,22.83,0,0,0-9.24-1.94Z" transform="translate(-0.39)"/><path class="cls-15" d="M673.71,447.43l-1,.48a1.93,1.93,0,0,1-2.54-.9l-4.66-9.76a1.89,1.89,0,0,1,.9-2.52l1-.48a1.9,1.9,0,0,1,2.53.9l4.67,9.76A1.9,1.9,0,0,1,673.71,447.43Z" transform="translate(-0.39)"/><path class="cls-15" d="M677.59,444.65l-1.08.51a1.88,1.88,0,0,1-2.49-.88l-5-10.38a1.86,1.86,0,0,1,.89-2.48l1.08-.51a1.89,1.89,0,0,1,2.49.88l5,10.39A1.85,1.85,0,0,1,677.59,444.65Z" transform="translate(-0.39)"/><path class="cls-15" d="M683.07,453.6l-.7-.16a2.46,2.46,0,0,1-1.84-2.94l3-12.77c.31-1.31,2.06-3.3,3.37-3,2.18.52,2.44,3,2.14,4.27l-3,12.76A2.48,2.48,0,0,1,683.07,453.6Z" transform="translate(-0.39)"/><path class="cls-15" d="M681.92,443l-.4.18a2.33,2.33,0,0,1-3.1-1.09l-7-14.71c-.54-1.15-1.34-3.85.81-4.63,1.57-.56,3.11,2.17,4,3.92,1.77,3.52,6.82,13.25,6.82,13.25A2.32,2.32,0,0,1,681.92,443Z" transform="translate(-0.39)"/><path class="cls-15" d="M673.81,457.73s-10.07-8.79-10.63-17c-.2-2.83,12.52-8.81,15-6.82s7.87,14,7.87,14Z" transform="translate(-0.39)"/><path class="cls-15" d="M669.44,448.92l-1,.49c-.94.44-.17,2.25-.81,1.45a31.2,31.2,0,0,1-5.69-10.69,2.6,2.6,0,0,1,.9-3.06l.93-.27a2.2,2.2,0,0,1,2.62,1.24l4,8.35A1.88,1.88,0,0,1,669.44,448.92Z" transform="translate(-0.39)"/><path class="cls-8" d="M744.89,721.46s-.35,6.79-5,8.58-18.14,3.16-13.24,7.67c2.8,2.58,16.4,1.33,20.23,1.43s7.37,1.85,10.29-.61c3.2-2.72.45-16.73.45-16.73a15.35,15.35,0,0,1-6.32,1.46A12.35,12.35,0,0,1,744.89,721.46Z" transform="translate(-0.39)"/><path class="cls-13" d="M711.31,550.24c.89,14.1,2.58,32.4,5.71,54.79,6,42.67,13.2,85.7,16.76,106.33a16.07,16.07,0,0,0,14.7,13.4l3.95.27c8,.53,14-2.4,14-15L766,595.41l-6.18-45.8S709.84,527.1,711.31,550.24Z" transform="translate(-0.39)"/><path class="cls-8" d="M788.74,722.63s-.36,6.79-5,8.59-18.14,3.16-13.25,7.66c2.81,2.59,16.41,1.33,20.23,1.43s7.38,1.86,10.29-.61c3.2-2.72.45-16.73.45-16.73a15.28,15.28,0,0,1-6.31,1.46A12.18,12.18,0,0,1,788.74,722.63Z" transform="translate(-0.39)"/><path class="cls-13" d="M754.36,516.45s-1.75,30.64,6.5,89.75c6,42.67,13.2,85.7,16.76,106.33a16.1,16.1,0,0,0,14.7,13.41l4,.26A13.49,13.49,0,0,0,810.52,712l-6.23-139.1-1.22-45.76Z" transform="translate(-0.39)"/><path class="cls-8" d="M766.19,644.39c0-2.1-.58-51.59,2-60.63s14-16.73,14.53-17l.33.49c-.12.08-11.77,7.82-14.28,16.71s-2,60-2,60.47Z" transform="translate(-0.39)"/><path class="cls-15" d="M763,422.23l-3.08-9.17-.9-2.67-5.27-15.7L753,410.3l-.41,9.38-.13,3c-.09,2-1.42,2.44-3,4.19-.66.71-4.86,5-.09,6.95,5.93,2.42,17-1.24,21.25-6C770.58,427.73,764,425.19,763,422.23Z" transform="translate(-0.39)"/><path class="cls-15" d="M739.54,398.73c1.31-9.21,9.08-15.86,17.37-14.86s13.93,9.28,12.61,18.49-9.08,15.87-17.36,14.87S738.23,407.94,739.54,398.73Z" transform="translate(-0.39)"/><path class="cls-8" d="M746,394.69c-8.65.3-12.84-4.3-12.94-8.56-.13-5.47,3.6-10.31,7.94-8.28s2.48-3,6.66-3.48c7.8-1,9.27,4.14,15.65,4.39,8.43.32,18,13.27,11,22.72C774.3,401.48,752.85,394.45,746,394.69Z" transform="translate(-0.39)"/><path class="cls-8" d="M738.32,389.18s9.24,8.2,8,12.82-.91,6.43,4.48,8.89.63,6.46,7.82,6.75,16-7.55,16-20.44a18.54,18.54,0,0,0-4.47-11.88Z" transform="translate(-0.39)"/><path class="cls-15" d="M741.67,401.8a3.3,3.3,0,0,1,4.3-.92,2.73,2.73,0,0,1,.51,4,3.3,3.3,0,0,1-4.3.92A2.74,2.74,0,0,1,741.67,401.8Z" transform="translate(-0.39)"/><path class="cls-8" d="M777.77,405a.21.21,0,0,1-.21-.17,4.94,4.94,0,0,0-2.24-2.74.21.21,0,0,1-.08-.29.21.21,0,0,1,.29-.08,5.23,5.23,0,0,1,2.44,3,.21.21,0,0,1-.15.26Z" transform="translate(-0.39)"/><path class="cls-8" d="M775.43,401.16a.22.22,0,0,1-.22-.2.23.23,0,0,1,.2-.23s2.37-.15,2.7-1.82a.23.23,0,0,1,.26-.17.22.22,0,0,1,.16.26c-.4,2-3,2.15-3.09,2.16Z" transform="translate(-0.39)"/><path class="cls-8" d="M742.33,377.53a1.88,1.88,0,0,1-.46-.06,6.35,6.35,0,0,1-1.77-.87,3.67,3.67,0,0,0-3.61-.61.21.21,0,0,1-.26-.15.2.2,0,0,1,.14-.26,4.09,4.09,0,0,1,4,.66,6.06,6.06,0,0,0,1.65.82,1.09,1.09,0,0,0,.94-.14c.94-.64,1.17-2.67,1.17-2.69a.21.21,0,1,1,.42,0c0,.09-.24,2.25-1.35,3A1.39,1.39,0,0,1,742.33,377.53Z" transform="translate(-0.39)"/><path class="cls-8" d="M762.67,378.08a9.28,9.28,0,0,1-5.54-2.14.21.21,0,0,1,0-.3.22.22,0,0,1,.3,0s2.87,2.46,6.18,2a.2.2,0,0,1,.24.18.21.21,0,0,1-.18.24A6.55,6.55,0,0,1,762.67,378.08Z" transform="translate(-0.39)"/><path class="cls-8" d="M744,406.44a2.45,2.45,0,0,1-.6-.07.1.1,0,1,1,.06-.2c.08,0,2,.58,3.29-1.86a.1.1,0,0,1,.14,0,.1.1,0,0,1,0,.14A3.33,3.33,0,0,1,744,406.44Z" transform="translate(-0.39)"/><path class="cls-8" d="M711.31,550.24s62.71-3.4,92.48,3.72l.44-8.43L762.5,533.26l-33.7.82-10.35,2.19-7.3,11.21Z" transform="translate(-0.39)"/><path class="cls-10" d="M798.22,447.57S792.7,424,758.93,424c-58.84,0-42.34,47.69-47.78,123.49,0,0,37.94-8.17,92.83,2.7,0,0,5.35-41-1.56-75.76C800.6,465.26,800.93,455.54,798.22,447.57Z" transform="translate(-0.39)"/><path class="cls-10" d="M752.16,424s-18.88.28-32.92,13.44-32.11,31.29-36,41.72c-4.72,12.84,4,25.73,15,26s20.93-7.67,20.93-7.67Z" transform="translate(-0.39)"/><path class="cls-10" d="M835.76,493.36c-5.52-40.58-52-63.5-52-63.5l-9.92,50.9,19.38,6.11a15.33,15.33,0,0,1,8,23.49C793.46,521.19,789,535.7,796.92,533,810.53,528.46,838.52,511.19,835.76,493.36Z" transform="translate(-0.39)"/><path class="cls-8" d="M805.73,531.69l-.41,0c1.63-29.74-3.66-60.18-3.72-60.48l.41-.07C802.06,471.42,807.37,501.91,805.73,531.69Z" transform="translate(-0.39)"/><path class="cls-8" d="M712.7,501.75l-.21-.35c11.09-6.5,25.53-23.63,25.67-23.8l.32.27C738.33,478,723.85,495.22,712.7,501.75Z" transform="translate(-0.39)"/><path class="cls-10" d="M707.7,460.19s-14.26-14.77-19.25-15.78-33.72,6.87-2.18,54.42Z" transform="translate(-0.39)"/><path class="cls-15" d="M305.83,603.48c1.85,3.29,20.43,31.93,16.54,59.95l-20.22-7.28-9.24-37.76Z" transform="translate(-0.39)"/><path class="cls-13" d="M225.07,591.74s12.43-22.18,42.68-16,46.75,49.23,38.55,134.57c0,0-48.06-19-110.54-3.68C195.76,706.58,206.05,623.92,225.07,591.74Z" transform="translate(-0.39)"/><path class="cls-13" d="M202,582.78l21.26,21.12s54.51,14.66,69.65,14.49S314,607.2,314,607.2A80.65,80.65,0,0,0,275.37,578a73,73,0,0,0-7.62-2.25,78.16,78.16,0,0,0-13.51-2C227.48,572.16,202,582.78,202,582.78Z" transform="translate(-0.39)"/><path class="cls-8" d="M202,582.78c-3.4,3.68,1.84,7.69,7.72,13.53s11.93,9.23,13.54,7.6-1.84-7.7-7.71-13.53S203.56,581.09,202,582.78Z" transform="translate(-0.39)"/><path class="cls-15" d="M220.43,604s.32-4.22-5-9.6a32.26,32.26,0,0,0-10-6.54,3.12,3.12,0,0,0-4.14,1.73l-1.7,4.38,7.94,5.08Z" transform="translate(-0.39)"/><path class="cls-12" d="M258,682.24s-65.59-35.38-89.1,3.21c-17.4,28.57,8.76,55.17,105.79,52.47,0,0,9.59-4.47,7.26-27.66C281,701.07,258,682.24,258,682.24Z" transform="translate(-0.39)"/><path class="cls-12" d="M258,682.24s87.36-35.62,104.65-13.35c19.86,25.58.81,69-91.27,53.5l-11.22-12.13Z" transform="translate(-0.39)"/><path class="cls-20" d="M274.8,738.07l-.21-.3c10.18-7.23,7.45-25.81,7.2-27.37l-66.22-24,.13-.34,66.41,24.06,0,.1C282.17,710.43,285.58,730.42,274.8,738.07Z" transform="translate(-0.39)"/><path class="cls-8" d="M282.51,716.64s16.1.65,23.66,4.34,3.52,12.71-11.83,12.47-14.19-2.52-14.19-2.52S283.07,723,282.51,716.64Z" transform="translate(-0.39)"/><path class="cls-15" d="M261.9,683.93a21.41,21.41,0,0,0,13.26-4c6.71-5,7.95-13.07,7-18.41l-6.42-3.71c-.31-1.76-12.7,4.75-12.68,4.75s-5.91,1.7-26.2-8.62c-14.13-7.19-21.25-17.38-21.77-31.18-.39-10.4,4.27-16.24,5.36-18.77.15-.34-6.82-7.29-6.62-8l-5.23-2.65c.17-.59-5-2.63-5-2.8l-4,3.42a66.66,66.66,0,0,0-5.68,29.61c.57,15.06,6.82,35.85,33.37,49.36C241.75,680.29,253.12,683.93,261.9,683.93Z" transform="translate(-0.39)"/><path class="cls-9" d="M266.21,684.78h56.6a2.74,2.74,0,0,0,2.61-1.86l11.77-35a2.72,2.72,0,0,0-2.62-3.57H280.14a5.77,5.77,0,0,0-5.47,3.89L263.59,681.2A2.73,2.73,0,0,0,266.21,684.78Z" transform="translate(-0.39)"/><path class="cls-9" d="M269.76,684.78h56.6a2.76,2.76,0,0,0,2.62-1.86l11.76-35a2.72,2.72,0,0,0-2.61-3.57H283.69a5.75,5.75,0,0,0-5.46,3.89L267.15,681.2A2.72,2.72,0,0,0,269.76,684.78Z" transform="translate(-0.39)"/><path class="cls-14" d="M309.42,663.43c0-1.32-1.54-1.87-2.88-1.87S303,663,303,664.88s1.59,2.27,2.93,2.27S309.42,665.12,309.42,663.43Z" transform="translate(-0.39)"/><path class="cls-9" d="M249,679.84h77.44v4.94H247.33a1.67,1.67,0,0,1-1.67-1.67h0A3.28,3.28,0,0,1,249,679.84Z" transform="translate(-0.39)"/><path class="cls-8" d="M273.61,662.29h-.08a.29.29,0,0,1-.2-.35c.12-.43,2.82-10.52,4.65-13.8s4.16-4,4.26-4a.29.29,0,0,1,.35.2.29.29,0,0,1-.2.35s-2.17.64-3.92,3.76-4.56,13.56-4.59,13.67A.29.29,0,0,1,273.61,662.29Z" transform="translate(-0.39)"/><path class="cls-8" d="M265.42,680.12a.29.29,0,0,1-.29-.28.28.28,0,0,1,.29-.28c1.78,0,2.23-.72,2.23-.73L272,665.77a.28.28,0,1,1,.54.18l-4.41,13.11C268.12,679.15,267.57,680.12,265.42,680.12Z" transform="translate(-0.39)"/><path class="cls-18" d="M211,653.62a2.39,2.39,0,0,1-.63-.09,6.51,6.51,0,0,1-3.49-3.17c-1.44-2.49-1.48-5.08-.09-5.88a2,2,0,0,1,1.54-.15,6.55,6.55,0,0,1,3.49,3.17c1.44,2.5,1.48,5.08.09,5.89A1.86,1.86,0,0,1,211,653.62Zm-3.3-8.65a1.09,1.09,0,0,0-.54.14c-1,.58-.84,2.82.35,4.89a6,6,0,0,0,3,2.83,1.24,1.24,0,0,0,1-.08c1-.58.84-2.81-.35-4.89a5.93,5.93,0,0,0-3-2.82A1.82,1.82,0,0,0,207.71,645Z" transform="translate(-0.39)"/><path class="cls-15" d="M253.77,573.7c3.72-.11,6.54-.49,8.68-3l6.62-7.75,1.93-2.26,11.33-13.26-5.95,15.51-3.57,9.31-1.13,3c-.77,2,.24,2.93,1,5.27.29.95,2.24,6.79-2.85,6.82-6.34.05-14.35-7.28-16.11-13.61Z" transform="translate(-0.39)"/><path class="cls-8" d="M267.23,558S254.75,546,262,536s9,16.17,9,16.17l-2,6.07Z" transform="translate(-0.39)"/><path class="cls-8" d="M269.14,562.68a2.68,2.68,0,0,0-.07.27c-1.16,5.23,3.69,9.32,3.69,9.32l.05,0,3.57-9.31c-1.52-1.13-3.75-2.5-5.38-2.25A2.32,2.32,0,0,0,269.14,562.68Z" transform="translate(-0.39)"/><path class="cls-15" d="M295.55,556.2c2.81-9.33-1.14-18.79-8.84-21.14s-16.22,3.32-19,12.65,1.14,18.79,8.84,21.13S292.74,565.53,295.55,556.2Z" transform="translate(-0.39)"/><path class="cls-8" d="M270.31,546.36s4,2.87,7.31.44,5.68-4.73,13.14-1,15.62,2.06,17.13-2.14-2.05-7.43-6.73-7.22,1-2.35-2.27-6.77-11.52.13-15.62-2.06S264.58,523.51,262,536Z" transform="translate(-0.39)"/><path class="cls-15" d="M267.2,548.85a3,3,0,0,0,4.1,1.11,3,3,0,0,0,.63-4.22,3,3,0,0,0-4.1-1.11A3,3,0,0,0,267.2,548.85Z" transform="translate(-0.39)"/><path class="cls-3" d="M299.65,542.2c-3.13,0-7.38-3.8-7.58-4l.37-.4c.05,0,5,4.48,7.88,3.76,1.1-.28,1.72-.8,1.62-1.36s-.87-1-2-.92a6.13,6.13,0,0,1-3.8-.61l.29-.46a5.74,5.74,0,0,0,3.45.53c1.49-.15,2.44.59,2.58,1.37s-.35,1.55-2,2A3,3,0,0,1,299.65,542.2Z" transform="translate(-0.39)"/><path class="cls-3" d="M286.77,531.78a8.53,8.53,0,0,1-3.12-.55,35.08,35.08,0,0,1-3.52-1.67c-2.12-1.12-3.95-2.08-5.93-1.69l-.1-.54c2.17-.42,4.08.58,6.28,1.75a33.79,33.79,0,0,0,3.46,1.64c3.8,1.48,8.23-.65,8.51-.89l.4.37A11.88,11.88,0,0,1,286.77,531.78Z" transform="translate(-0.39)"/><path class="cls-3" d="M265.74,535.32a.85.85,0,0,1-.23,0c-.18-.07-.46-.28-.28-.95l0-.08c.3-.44,1.88-2.58,3-1.89.14.08.43.35.14.93S266.58,535.32,265.74,535.32Zm0-.8a.49.49,0,0,0,0,.27,3.38,3.38,0,0,0,1.69-1.1c.53-.54.57-.83.56-.87C267.48,532.51,266.37,533.64,265.74,534.52Z" transform="translate(-0.39)"/><path class="cls-22" d="M284.41,552.41a.28.28,0,0,0,.22-.15.29.29,0,0,0-.12-.4,3.18,3.18,0,0,0-3.9.36.31.31,0,0,0,0,.42.32.32,0,0,0,.42,0,5.05,5.05,0,0,1,3.24-.3A.28.28,0,0,0,284.41,552.41Z" transform="translate(-0.39)"/><path class="cls-22" d="M281.68,555.35c-.11.7.21,1.33.71,1.41s1-.42,1.12-1.12-.21-1.33-.71-1.41S281.79,554.65,281.68,555.35Z" transform="translate(-0.39)"/><path class="cls-22" d="M294.72,556.13a.22.22,0,0,0,.21-.06.39.39,0,0,0,.06-.42,2.08,2.08,0,0,0-2.89-.93.35.35,0,0,0-.17.37.22.22,0,0,0,.28.18,3.05,3.05,0,0,1,2.39.77A.18.18,0,0,0,294.72,556.13Z" transform="translate(-0.39)"/><path class="cls-22" d="M291,557.79a1.16,1.16,0,0,0,.12,1.58c.44.27,1.09,0,1.46-.61a1.16,1.16,0,0,0-.12-1.58C292,556.91,291.39,557.19,291,557.79Z" transform="translate(-0.39)"/><path class="cls-20" d="M282.58,565.22a6.62,6.62,0,0,1-6.05-3.32.21.21,0,1,1,.36-.2c2.36,4.16,7.17,3,7.37,2.94a.21.21,0,0,1,.1.4A8.66,8.66,0,0,1,282.58,565.22Z" transform="translate(-0.39)"/><path class="cls-20" d="M276.11,562.63H276a.22.22,0,0,1-.13-.26,2.76,2.76,0,0,1,1.36-1.41.23.23,0,0,1,.3.06.18.18,0,0,1,0,.26l-.06,0a2.29,2.29,0,0,0-1.17,1.18A.22.22,0,0,1,276.11,562.63Z" transform="translate(-0.39)"/><polygon class="cls-8" points="301.6 616.77 298.26 606.66 299.12 606.38 302.46 616.49 301.6 616.77"/><path class="cls-3" d="M292.68,567.79a3.87,3.87,0,0,1-2.8-1.17c-2.49-2.45-2.38-8.14.26-12.68,1.62-2.79,3.89-4.64,6.08-4.93a4,4,0,0,1,3.41,1.13c2.49,2.45,2.37,8.14-.27,12.68-1.62,2.79-3.89,4.63-6.08,4.93C293.08,567.77,292.88,567.79,292.68,567.79Zm4.13-18.21a4.75,4.75,0,0,0-.51,0c-2,.27-4.1,2-5.63,4.63h0c-2.5,4.31-2.66,9.67-.36,11.94a3.37,3.37,0,0,0,2.89.95c2-.27,4.11-2,5.63-4.63,2.51-4.31,2.67-9.67.36-11.94A3.31,3.31,0,0,0,296.81,549.58Z" transform="translate(-0.39)"/><g class="cls-17"><path class="cls-3" d="M275.31,547.27c-2.14,4.51-1.55,10,1.31,12.27s6.91.43,9.05-4.08,1.54-10-1.32-12.27S277.44,542.76,275.31,547.27Z" transform="translate(-0.39)"/></g><g class="cls-17"><path class="cls-3" d="M289.93,554.3c-2.14,4.54-1.86,10,.64,12.29s6.26.41,8.4-4.13,1.85-10-.65-12.29S292.07,549.77,289.93,554.3Z" transform="translate(-0.39)"/></g><path class="cls-3" d="M279.83,560.75a5,5,0,0,1-3.11-1.09c-3.16-2.46-3.86-8.38-1.55-13.19,1.34-2.81,3.43-4.74,5.72-5.27a5,5,0,0,1,4.35.94c3.16,2.46,3.85,8.37,1.55,13.19-1.34,2.81-3.43,4.73-5.72,5.27A5.38,5.38,0,0,1,279.83,560.75Zm2.3-19.09a4.65,4.65,0,0,0-1.1.13c-2.08.49-4.06,2.34-5.31,4.94h0c-2.18,4.57-1.57,10.15,1.38,12.44a4.43,4.43,0,0,0,3.83.84c2.08-.49,4.06-2.34,5.31-4.94,2.18-4.57,1.56-10.16-1.38-12.45A4.43,4.43,0,0,0,282.13,541.66Z" transform="translate(-0.39)"/><path class="cls-3" d="M290.29,556.23a.55.55,0,0,1-.45-.22,5.1,5.1,0,0,0-3.85-1.6.59.59,0,0,1-.56-.59.6.6,0,0,1,.59-.56,6.23,6.23,0,0,1,4.73,2,.58.58,0,0,1-.11.81A.56.56,0,0,1,290.29,556.23Z" transform="translate(-0.39)"/><polygon class="cls-20" points="262.03 702.94 261.89 702.6 298.62 687.07 298.76 687.4 262.03 702.94"/><path class="cls-15" d="M152.88,459.63s13.56-.62,15.72-21.33c2.22-21.29-22.31,0-22.31,0Z" transform="translate(-0.39)"/><path class="cls-15" d="M139,391.72c.83.33,14.56,4,20.64,24.64s-14.33,4.36-14.33,4.36Z" transform="translate(-0.39)"/><path class="cls-8" d="M121,675.63s.19,7.41,5.22,9.5,19.63,4,14.18,8.73c-3.13,2.73-17.87,1-22,1s-8.07,1.8-11.17-1c-3.4-3.05,0-18.23,0-18.23a16.73,16.73,0,0,0,6.82,1.78C118.64,677.29,121,675.63,121,675.63Z" transform="translate(-0.39)"/><path class="cls-8" d="M63.14,675.63s.19,7.41,5.22,9.5,19.62,4,14.17,8.73c-3.12,2.73-17.87,1-22,1s-8.07,1.8-11.16-1c-3.4-3.05,0-18.23,0-18.23a16.73,16.73,0,0,0,6.82,1.78C60.82,677.29,63.14,675.63,63.14,675.63Z" transform="translate(-0.39)"/><path class="cls-7" d="M158.39,472.6s.93,31-9,90.48C142.2,606,133.73,649.27,129.57,670a16.23,16.23,0,0,1-15.19,13.14l-4,.16a13.62,13.62,0,0,1-14-14.71l10.09-140.32L109,482.09Z" transform="translate(-0.39)"/><path class="cls-8" d="M67.45,499.89c.45,3.77,21.89,3.31,48.14,0s46.67-9,46.21-12.73-21.63-4.24-47.87-.93S67,496.11,67.45,499.89Z" transform="translate(-0.39)"/><path class="cls-7" d="M128.25,494.75l-56,179.14a18,18,0,0,1-16.85,12.77l-3.37.06a12.74,12.74,0,0,1-12.58-15.15L70.07,503.24a5.55,5.55,0,0,1,3.87-4.15C84.45,496.08,129.29,487.34,128.25,494.75Z" transform="translate(-0.39)"/><path class="cls-9" d="M76.21,396.74s7.45-20.87,34-19.92,46.61,35.68,51.58,110.34c0,0-43.49-9.5-94.43,12.65C67.37,499.81,64.54,427.17,76.21,396.74Z" transform="translate(-0.39)"/><path class="cls-9" d="M57.56,395.49l18.81,12s48.37,4.82,61.2,2.5,14.84-11.71,14.84-11.71A59.62,59.62,0,0,0,117,377.44a65.36,65.36,0,0,0-6.74-.62,66.59,66.59,0,0,0-11.74.25C75.51,379.54,57.56,395.49,57.56,395.49Z" transform="translate(-0.39)"/><path class="cls-20" d="M103.21,574.82l-.89-.29,12.05-36.46a35.5,35.5,0,0,1,16.12-19.79l.46.81a34.62,34.62,0,0,0-15.69,19.27Z" transform="translate(-0.39)"/><path class="cls-8" d="M57.29,395.9c-.65,1.89,4.27,5.42,11,7.88s12.7,2.94,13.36,1.06-4.27-5.42-11-7.88S57.94,394,57.29,395.9Z" transform="translate(-0.39)"/><path class="cls-15" d="M103.44,461.13l.22-13.69a3.53,3.53,0,0,0-3.29-3.57c-9.53-.68-16.2-3.62-19.85-8.76C75.44,428,76,416.87,77.39,409.17c.72-3.94-.58-6.57-5.36-9.09A32.81,32.81,0,0,0,62.85,397c-2-.35-4.05.46-4.57,2.45A83.29,83.29,0,0,0,55.89,413c-1.2,13.49,1.41,25.23,7.56,33.94,7.55,10.7,19.72,16.61,36.2,17.62A3.55,3.55,0,0,0,103.44,461.13Z" transform="translate(-0.39)"/><g class="cls-24"><path class="cls-18" d="M68.4,443.4a5.49,5.49,0,0,1-4.05-2.21A6.06,6.06,0,0,1,63,438a3,3,0,0,1,1-2.74,3.07,3.07,0,0,1,2.91-.41,6.46,6.46,0,0,1,4.27,5.28,3.08,3.08,0,0,1-1,2.74A2.77,2.77,0,0,1,68.4,443.4Zm-2.65-7.86a1.85,1.85,0,0,0-1.18.38,2.18,2.18,0,0,0-.68,2,5.1,5.1,0,0,0,1.18,2.74c1.35,1.67,3.42,2.35,4.5,1.49a2.18,2.18,0,0,0,.68-2,5.53,5.53,0,0,0-3.62-4.47A2.83,2.83,0,0,0,65.75,435.54Z" transform="translate(-0.39)"/></g><path class="cls-7" d="M88.55,495.8s52.38-10,69.36-5.26l-8.14,12-30.28,1.7Z" transform="translate(-0.39)"/><path class="cls-8" d="M109.7,445.18l45.15,0a2.18,2.18,0,0,0,2.08-1.48l9.4-27.89a2.18,2.18,0,0,0-2.08-2.86H120.83a4.59,4.59,0,0,0-4.36,3.1l-8.85,26.27A2.17,2.17,0,0,0,109.7,445.18Z" transform="translate(-0.39)"/><path class="cls-8" d="M112.53,445.18l45.16,0a2.2,2.2,0,0,0,2.08-1.48l9.39-27.89a2.17,2.17,0,0,0-2.08-2.85l-43.42,0a4.58,4.58,0,0,0-4.36,3.11l-8.85,26.26A2.17,2.17,0,0,0,112.53,445.18Z" transform="translate(-0.39)"/><path class="cls-14" d="M144.18,428.17c0-1.06-1.23-1.49-2.3-1.49s-2.82,1.16-2.81,2.64,1.27,1.81,2.34,1.81A3.53,3.53,0,0,0,144.18,428.17Z" transform="translate(-0.39)"/><path class="cls-19" d="M115.75,427.06l-.28-.08c.09-.34,2.25-8.38,3.7-11a6.27,6.27,0,0,1,3.35-3.17l.08.28a6,6,0,0,0-3.17,3C118,418.71,115.77,427,115.75,427.06Z" transform="translate(-0.39)"/><polygon class="cls-19" points="110.81 440.6 110.53 440.5 114.05 430.05 114.33 430.14 110.81 440.6"/><path class="cls-15" d="M168.87,435.22s.75,5.86-4.22,6.41c-6.34.71-15-4.94-11-5.45a43.77,43.77,0,0,1,8.78.21s-13.26-1.87-12-4.68,12.63-1,12.63-1-12.79-3.13-10.81-5.36,12.33-.68,12.33-.68-12.63-2.34-10.28-4.86,8.7.09,11.6.55c2.75.44,3.42,2.47,2.91,5.27,0,0,1,3.14.24,4.87-.3.66.24,1.45.24,2A19,19,0,0,1,168.87,435.22Z" transform="translate(-0.39)"/><path class="cls-15" d="M96.87,443s3.35-10.08,9.08-12.55,14.93-1.31,11.7,1a41.41,41.41,0,0,1-8.15,4.07s10.71-3.32,10.41-.49-9.66,5.62-9.66,5.62,13.07-2.93,11.91-.35-11.1,4.74-11.1,4.74,12.26-2.24,10.85.72-10.15,1.79-10.46,4.62-2.49,14-10.49,14.08Z" transform="translate(-0.39)"/><path class="cls-18" d="M105.68,437.83l-.42-.2c.88-1.84,4.07-2.35,4.2-2.37l.07.45S106.45,436.2,105.68,437.83Z" transform="translate(-0.39)"/><path class="cls-18" d="M105.63,443.44l-.37-.27a8,8,0,0,1,5-2.77l.06.45A7.8,7.8,0,0,0,105.63,443.44Z" transform="translate(-0.39)"/><path class="cls-18" d="M106.76,447.61l-.44-.16c.78-2.05,4.54-2.64,4.7-2.67l.07.46S107.43,445.81,106.76,447.61Z" transform="translate(-0.39)"/><path class="cls-18" d="M163.92,442a20.3,20.3,0,0,1-4.19-.56l.11-.45c1.36.34,5.15,1,6.31.05l.3.35A4.12,4.12,0,0,1,163.92,442Z" transform="translate(-0.39)"/><path class="cls-8" d="M125.15,338.7s3.6-9.82-5.17-12.89-8.37,4.19-10.42,5.52.85,7.42,5,9.14S125.15,338.7,125.15,338.7Z" transform="translate(-0.39)"/><path class="cls-15" d="M111.2,383.81C115.42,382.45,113,377,113,377c-1.9-.33-3.3-1.59-3.18-3.52l.16-2.36L110,370l.25-3.74.23-3.36.92-13.79-5.68,13.33-1,2.27-3.32,7.81a8.72,8.72,0,0,1-6,5C97.32,379.58,106.25,385.41,111.2,383.81Z" transform="translate(-0.39)"/><path class="cls-8" d="M104.77,364.66S106.47,369,110,370l.25-3.74C108.08,365.43,104.77,364.66,104.77,364.66Z" transform="translate(-0.39)"/><path class="cls-8" d="M95.76,346.88s.55,2.26-.73,6.9c-1.88,6.79,5.92,9.58,7.91,7.63.24-.24-.15-11.77-.15-11.77l-2.5-1.46Z" transform="translate(-0.39)"/><path class="cls-15" d="M125.07,351.19c0-8.82-5.91-15.94-13.1-15.9s-13,7.22-12.92,16,5.91,15.94,13.1,15.91S125.12,360,125.07,351.19Z" transform="translate(-0.39)"/><path class="cls-8" d="M117.15,339c-.36.5,1.73,8.7-13.55,10.75s-6.2-16.48,5.08-17c16.3-.69,18.73,10.21,17.18,14.14S117.15,339,117.15,339Z" transform="translate(-0.39)"/><path class="cls-8" d="M105.27,347.09s-6.22,6.59-4,13.29c0,0-3.65-3.93-3.74-5.4a56,56,0,0,1,.85-6.79Z" transform="translate(-0.39)"/><path class="cls-15" d="M100.8,353.73c1.49,1.39,3.55,1.53,4.61.3s.72-3.36-.76-4.75-3.54-1.52-4.6-.29S99.32,352.34,100.8,353.73Z" transform="translate(-0.39)"/><path class="cls-22" d="M113.32,351.41a.29.29,0,0,0,0-.56,3.24,3.24,0,0,0-3.83.87.3.3,0,0,0,0,.42.33.33,0,0,0,.42,0,5,5,0,0,1,3.17-.73A.31.31,0,0,0,113.32,351.41Z" transform="translate(-0.39)"/><path class="cls-22" d="M111,354.66c0,.7.38,1.28.89,1.3s.94-.55,1-1.25-.38-1.29-.89-1.3S111,354,111,354.66Z" transform="translate(-0.39)"/><path class="cls-22" d="M123.89,352.89a.3.3,0,0,0,.25-.09.3.3,0,0,0,0-.42,3.23,3.23,0,0,0-3.87-.64.3.3,0,0,0-.15.39.34.34,0,0,0,.4.15,5,5,0,0,1,3.21.53A.38.38,0,0,0,123.89,352.89Z" transform="translate(-0.39)"/><path class="cls-22" d="M120.5,355a1.14,1.14,0,0,0,.33,1.54c.47.21,1.08-.15,1.36-.79a1.14,1.14,0,0,0-.33-1.54C121.4,354,120.78,354.37,120.5,355Z" transform="translate(-0.39)"/><g class="cls-17"><path class="cls-3" d="M106,350.77c-1.16,3.79-.06,8,2.48,9.49s5.53-.47,6.7-4.26.06-8.05-2.47-9.49S107.17,347,106,350.77Z" transform="translate(-0.39)"/></g><g class="cls-17"><path class="cls-3" d="M119,353.05c-.72,3.84.56,7.92,2.85,9.12s4.75-.93,5.47-4.76-.56-7.91-2.86-9.11S119.72,349.22,119,353.05Z" transform="translate(-0.39)"/></g><path class="cls-8" d="M105.3,353.5c0,.2,0,.41,0,.61a8.69,8.69,0,0,0,1.8,5,5,5,0,0,0,1.44,1.22,4.06,4.06,0,0,0,1.61.52l.45,0a4.29,4.29,0,0,0,1.51-.31,6.39,6.39,0,0,0,3.1-2.9,9.61,9.61,0,0,0,.81-1.9,10.19,10.19,0,0,0,.44-2.17,7.26,7.26,0,0,0,.06-.93A8.39,8.39,0,0,0,114,346a4.81,4.81,0,0,0-.66-.45,4,4,0,0,0-3.57-.23,6.85,6.85,0,0,0-3.61,3.95c-.12.27-.21.56-.31.85s-.1.35-.14.53a10.43,10.43,0,0,0-.29,1.54A11.1,11.1,0,0,0,105.3,353.5Zm8,5.75a4.81,4.81,0,0,1-1.39.87,3.78,3.78,0,0,1-1.3.27,3.65,3.65,0,0,1-1.85-.48,4.62,4.62,0,0,1-1.46-1.3,8.54,8.54,0,0,1-1.56-5.2h0c0-.31,0-.62,0-.93a6.64,6.64,0,0,1,.12-.88,8.47,8.47,0,0,1,.31-1.3,9.63,9.63,0,0,1,.44-1.14,6.36,6.36,0,0,1,.3-.58l0,0,0-.06a7.58,7.58,0,0,1,.69-1,5.36,5.36,0,0,1,2.15-1.66,3.58,3.58,0,0,1,3.15.21,3.23,3.23,0,0,1,.49.33c1.65,1.24,2.58,3.73,2.52,6.38a7.54,7.54,0,0,1-.06.94,11,11,0,0,1-.41,2,9.87,9.87,0,0,1-.78,1.81,7.32,7.32,0,0,1-1.44,1.81Z" transform="translate(-0.39)"/><path class="cls-8" d="M118.79,355.29c0,.22,0,.43,0,.64l.06.62c0,.14,0,.29.06.42v0l.06.35h0a11.59,11.59,0,0,1,0-3.22.75.75,0,0,0-.17-.1c0,.21,0,.41,0,.62S118.79,355.09,118.79,355.29Zm0,0c0,.22,0,.43,0,.64l.06.62c0,.14,0,.29.06.42v0l.06.35h0a11.59,11.59,0,0,1,0-3.22.75.75,0,0,0-.17-.1c0,.21,0,.41,0,.62S118.79,355.09,118.79,355.29Zm0,0c0,.22,0,.43,0,.64l.06.62c0,.14,0,.29.06.42v0l.06.35h0a11.59,11.59,0,0,1,0-3.22.75.75,0,0,0-.17-.1c0,.21,0,.41,0,.62S118.79,355.09,118.79,355.29Zm0,0c0,.22,0,.43,0,.64l.06.62c0,.14,0,.29.06.42v0l.06.35h0a11.59,11.59,0,0,1,0-3.22.75.75,0,0,0-.17-.1c0,.21,0,.41,0,.62S118.79,355.09,118.79,355.29Zm0,0c0,.22,0,.43,0,.64l.06.62c0,.14,0,.29.06.42v0l.06.35h0a11.59,11.59,0,0,1,0-3.22.75.75,0,0,0-.17-.1c0,.21,0,.41,0,.62S118.79,355.09,118.79,355.29Zm0,0c0,.22,0,.43,0,.64l.06.62c0,.14,0,.29.06.42v0l.06.35h0a11.59,11.59,0,0,1,0-3.22.75.75,0,0,0-.17-.1c0,.21,0,.41,0,.62S118.79,355.09,118.79,355.29Zm0,0c0,.22,0,.43,0,.64l.06.62c0,.14,0,.29.06.42v0l.06.35h0a11.59,11.59,0,0,1,0-3.22.75.75,0,0,0-.17-.1c0,.21,0,.41,0,.62S118.79,355.09,118.79,355.29Zm0,0c0,.22,0,.43,0,.64l.06.62c0,.14,0,.29.06.42v0l.06.35h0a11.59,11.59,0,0,1,0-3.22.75.75,0,0,0-.17-.1c0,.21,0,.41,0,.62S118.79,355.09,118.79,355.29Zm-.38.6a10.27,10.27,0,0,0,.74,3.9h0a5.13,5.13,0,0,0,2.06,2.53.91.91,0,0,0,.17.09h0a3.16,3.16,0,0,0,1.43.34,3.34,3.34,0,0,0,1.26-.26c1.64-.67,3-2.54,3.73-5,1.13-4,.08-8.42-2.35-9.8l-.15-.09h0a3,3,0,0,0-1.56-.35,3.68,3.68,0,0,0-1.15.26c-1.64.67-3,2.54-3.73,5l-.12.48c-.07.3-.13.6-.18.91A12.09,12.09,0,0,0,118.41,355.89Zm.59,1.49a11.59,11.59,0,0,1,0-3.22,9.59,9.59,0,0,1,.18-1c0-.19.09-.37.14-.55a9.2,9.2,0,0,1,1.4-3,5,5,0,0,1,2-1.66l.09,0a2.7,2.7,0,0,1,1.07-.22,2.55,2.55,0,0,1,.93.17,2.86,2.86,0,0,1,.44.2c2.24,1.28,3.19,5.43,2.12,9.25l0,.05h0v0c-.67,2.28-1.94,4-3.42,4.59a2.65,2.65,0,0,1-2.19,0,1.34,1.34,0,0,1-.24-.12,1.37,1.37,0,0,1-.2-.13.09.09,0,0,1-.05,0h0a4.21,4.21,0,0,1-1.3-1.51,8,8,0,0,1-.87-2.69S119,357.43,119,357.38Zm-.21-2.09c0,.22,0,.43,0,.64l.06.62c0,.14,0,.29.06.42v0l.06.35h0a11.59,11.59,0,0,1,0-3.22.75.75,0,0,0-.17-.1c0,.21,0,.41,0,.62S118.79,355.09,118.79,355.29Zm0,0c0,.22,0,.43,0,.64l.06.62c0,.14,0,.29.06.42v0l.06.35h0a11.59,11.59,0,0,1,0-3.22.75.75,0,0,0-.17-.1c0,.21,0,.41,0,.62S118.79,355.09,118.79,355.29Zm0,0c0,.22,0,.43,0,.64l.06.62c0,.14,0,.29.06.42v0l.06.35h0a11.59,11.59,0,0,1,0-3.22.75.75,0,0,0-.17-.1c0,.21,0,.41,0,.62S118.79,355.09,118.79,355.29Zm0,0c0,.22,0,.43,0,.64l.06.62c0,.14,0,.29.06.42v0l.06.35h0a11.59,11.59,0,0,1,0-3.22.75.75,0,0,0-.17-.1c0,.21,0,.41,0,.62S118.79,355.09,118.79,355.29Zm0,0c0,.22,0,.43,0,.64l.06.62c0,.14,0,.29.06.42v0l.06.35h0a11.59,11.59,0,0,1,0-3.22.75.75,0,0,0-.17-.1c0,.21,0,.41,0,.62S118.79,355.09,118.79,355.29Zm0,0c0,.22,0,.43,0,.64l.06.62c0,.14,0,.29.06.42v0l.06.35h0a11.59,11.59,0,0,1,0-3.22.75.75,0,0,0-.17-.1c0,.21,0,.41,0,.62S118.79,355.09,118.79,355.29Zm0,0c0,.22,0,.43,0,.64l.06.62c0,.14,0,.29.06.42v0l.06.35h0a11.59,11.59,0,0,1,0-3.22.75.75,0,0,0-.17-.1c0,.21,0,.41,0,.62S118.79,355.09,118.79,355.29Z" transform="translate(-0.39)"/><path class="cls-8" d="M119.33,354.27a.44.44,0,0,0,.36-.18.46.46,0,0,0-.08-.64,5.05,5.05,0,0,0-4.08-.63.46.46,0,0,0-.34.55.45.45,0,0,0,.55.34,4.13,4.13,0,0,1,3.31.46A.42.42,0,0,0,119.33,354.27Z" transform="translate(-0.39)"/><path class="cls-8" d="M105.11,335.69s-1.29-10.38-10.5-9.14-7.3,6.4-6.76,9.63c.4,2.4,4.14,6.22,8.63,5.87S105.11,335.69,105.11,335.69Z" transform="translate(-0.39)"/><path class="cls-8" d="M96.2,366.89a.3.3,0,0,1-.19-.07.29.29,0,0,1,0-.4,12.88,12.88,0,0,1,6-3.42.28.28,0,0,1,.34.21.28.28,0,0,1-.21.34,12.49,12.49,0,0,0-5.74,3.25A.27.27,0,0,1,96.2,366.89Z" transform="translate(-0.39)"/><path class="cls-20" d="M115.88,363.39a7.84,7.84,0,0,1-3.7-1.25.16.16,0,0,1-.05-.21.16.16,0,0,1,.22,0s3.43,2.21,5.3.59a.15.15,0,0,1,.2.22A2.93,2.93,0,0,1,115.88,363.39Z" transform="translate(-0.39)"/></svg>